<svg
    xmlns="http://www.w3.org/2000/svg"
    viewBox="0 0 32 32"
    id="vector">
    <path
        id="path"
        d="M 16 16 M 0 16 C 0 11.758 1.687 7.686 4.686 4.686 C 7.686 1.687 11.758 0 16 0 C 20.242 0 24.314 1.687 27.314 4.686 C 30.313 7.686 32 11.758 32 16 C 32 20.242 30.313 24.314 27.314 27.314 C 24.314 30.313 20.242 32 16 32 C 11.758 32 7.686 30.313 4.686 27.314 C 1.687 24.314 0 20.242 0 16"
        fill="#ffffff"
        stroke="#FFFFFFFF"
        stroke-width="1"/>
    <path
        id="path_1"
        d="M 16 16 M 0.5 16 C 0.5 11.891 2.134 7.946 5.04 5.04 C 7.946 2.134 11.891 0.5 16 0.5 C 20.109 0.5 24.054 2.134 26.96 5.04 C 29.866 7.946 31.5 11.891 31.5 16 C 31.5 20.109 29.866 24.054 26.96 26.96 C 24.054 29.866 20.109 31.5 16 31.5 C 11.891 31.5 7.946 29.866 5.04 26.96 C 2.134 24.054 0.5 20.109 0.5 16"
        fill="none"
        stroke="#007bff"
        stroke-width="1"/>
    <path
        id="path_2"
        d="M 20.844 14.593 L 16.964 14.593 L 20.313 8.7 C 20.367 8.605 20.386 8.493 20.366 8.386 C 20.347 8.278 20.29 8.18 20.206 8.11 C 20.122 8.039 20.017 8.001 19.907 8 L 14.282 8 C 14.184 8 14.088 8.031 14.008 8.088 C 13.929 8.146 13.869 8.227 13.838 8.32 L 11.025 16.789 C 10.993 16.883 10.993 16.985 11.023 17.08 C 11.053 17.175 11.112 17.257 11.193 17.316 C 11.273 17.374 11.37 17.406 11.469 17.406 L 15.446 17.406 L 12.913 23.346 C 12.867 23.448 12.86 23.564 12.892 23.671 C 12.925 23.779 12.994 23.871 13.089 23.932 C 13.183 23.992 13.296 24.017 13.407 24.001 C 13.518 23.985 13.62 23.93 13.694 23.846 L 21.194 15.377 C 21.274 15.286 21.316 15.168 21.312 15.047 C 21.307 14.927 21.255 14.812 21.168 14.728 C 21.081 14.644 20.965 14.597 20.844 14.597 Z M 20.844 14.593"
        fill="#007bff"/>
</svg>
