<svg
    xmlns="http://www.w3.org/2000/svg"
    viewBox="0 0 32 32"
    id="vector">
    <path
        id="path"
        d="M 16 16 M 0 16 C 0 11.758 1.687 7.686 4.686 4.686 C 7.686 1.687 11.758 0 16 0 C 20.242 0 24.314 1.687 27.314 4.686 C 30.313 7.686 32 11.758 32 16 C 32 20.242 30.313 24.314 27.314 27.314 C 24.314 30.313 20.242 32 16 32 C 11.758 32 7.686 30.313 4.686 27.314 C 1.687 24.314 0 20.242 0 16"
        fill="#ffffff"
        stroke-width="1"/>
    <path
        id="path_1"
        d="M 16 16 M 0.5 16 C 0.5 11.891 2.134 7.946 5.04 5.04 C 7.946 2.134 11.891 0.5 16 0.5 C 20.109 0.5 24.054 2.134 26.96 5.04 C 29.866 7.946 31.5 11.891 31.5 16 C 31.5 20.109 29.866 24.054 26.96 26.96 C 24.054 29.866 20.109 31.5 16 31.5 C 11.891 31.5 7.946 29.866 5.04 26.96 C 2.134 24.054 0.5 20.109 0.5 16"
        fill="#ffffff"
        stroke="#FFff5050"
        stroke-width="1"/>
    <path
        id="path_2"
        d="M 12 20 L 20 12"
        fill="#FFFFFF"
        stroke="#ff5050"
        stroke-width="2"
        stroke-linecap="round"/>
    <path
        id="path_3"
        d="M 12 12 L 20 20"
        fill="#00000000"
        stroke="#ffff5050"
        stroke-width="2"
        stroke-linecap="round"/>
</svg>
