<svg
    xmlns="http://www.w3.org/2000/svg"
    viewBox="0 0 32 32"
    id="vector">
    <path
        id="path"
        d="M 16 31.5 C 11.86 31.5 7.967 29.888 5.04 26.96 C 2.112 24.033 0.5 20.14 0.5 16 C 0.5 11.86 2.112 7.967 5.04 5.04 C 7.967 2.112 11.86 0.5 16 0.5 C 20.14 0.5 24.033 2.112 26.96 5.04 C 29.888 7.967 31.5 11.86 31.5 16 C 31.5 20.14 29.888 24.033 26.96 26.96 C 24.033 29.888 20.14 31.5 16 31.5 Z"
        fill="#FFFFFF"
        stroke="#21cf55"/>
    <path
        id="path_1"
        d="M 16 1 C 11.993 1 8.226 2.56 5.393 5.393 C 2.56 8.226 1 11.993 1 16 C 1 20.007 2.56 23.773 5.393 26.607 C 8.226 29.44 11.993 31 16 31 C 20.007 31 23.773 29.44 26.607 26.607 C 29.44 23.773 31 20.007 31 16 C 31 11.993 29.44 8.226 26.607 5.393 C 23.773 2.56 20.007 1 16 1 M 16 0 C 24.837 0 32 7.163 32 16 C 32 24.837 24.837 32 16 32 C 7.163 32 0 24.837 0 16 C 0 7.163 7.163 0 16 0 Z"
        stroke="#21cf55"/>
    <path
        id="path_2"
        d="M 22.12 11.241 C 21.758 10.847 21.317 10.532 20.826 10.319 C 20.336 10.105 19.805 9.996 19.27 10 C 18.458 9.997 17.668 10.269 17.031 10.773 C 16.686 11.043 16.381 11.361 16.126 11.718 C 15.871 11.361 15.566 11.043 15.22 10.773 C 14.583 10.269 13.793 9.996 12.981 10 C 12.446 9.996 11.915 10.105 11.425 10.319 C 10.934 10.532 10.493 10.847 10.131 11.241 C 9.385 12.076 8.981 13.163 9 14.283 C 9.033 15.573 9.536 16.808 10.414 17.754 C 11.502 18.954 12.685 20.065 13.952 21.075 C 14.442 21.493 14.998 21.966 15.575 22.475 C 15.727 22.608 15.923 22.681 16.125 22.681 C 16.327 22.681 16.523 22.608 16.675 22.475 C 17.252 21.975 17.808 21.497 18.298 21.075 C 19.565 20.065 20.748 18.954 21.836 17.754 C 22.714 16.808 23.217 15.573 23.25 14.282 C 23.269 13.162 22.866 12.076 22.12 11.24 Z M 22.12 11.241"
        fill="#21cf55"/>
</svg>
