<svg
    xmlns="http://www.w3.org/2000/svg"
    viewBox="0 0 188 212"
    id="vector">
    <path
        id="path"
        d="M 30.769 200.183 L 163.006 200.183 C 163.006 200.183 167.636 124.149 150.791 113.025 C 133.946 101.901 55.164 104.225 37.703 113.725 C 20.242 123.225 30.769 200.183 30.769 200.183 Z"
        fill="#f54747"/>
    <path
        id="path_1"
        d="M 52.784 97.005 C 52.586 97.004 52.394 96.933 52.242 96.805 C 51.877 96.505 43.398 89.369 48.042 74.988 C 49.35 70.989 50.89 67.07 52.654 63.251 C 55.179 57.589 57.001 53.499 57.348 44.751 C 57.372 44.528 57.477 44.32 57.643 44.168 C 57.808 44.016 58.023 43.929 58.248 43.924 C 58.4 43.93 58.547 43.976 58.675 44.058 C 58.803 44.139 58.907 44.253 58.977 44.387 C 59.047 44.522 59.08 44.673 59.073 44.824 C 58.715 53.9 56.736 58.337 54.232 63.955 C 52.492 67.717 50.974 71.578 49.685 75.517 C 45.423 88.738 53.017 95.204 53.343 95.473 C 53.48 95.586 53.578 95.739 53.625 95.91 C 53.672 96.081 53.665 96.263 53.605 96.43 C 53.545 96.597 53.435 96.741 53.29 96.844 C 53.145 96.946 52.972 97.001 52.794 97.001 Z"
        fill="#3e2d4a"/>
    <path
        id="path_2"
        d="M 88.92 10.815 M 78.105 10.815 C 78.105 8.531 78.828 6.306 80.17 4.458 C 81.513 2.611 83.406 1.235 85.578 0.529 C 87.75 -0.176 90.09 -0.176 92.262 0.529 C 94.434 1.235 96.327 2.611 97.67 4.458 C 99.012 6.306 99.735 8.531 99.735 10.815 C 99.735 13.099 99.012 15.324 97.67 17.172 C 96.327 19.019 94.434 20.395 92.262 21.101 C 90.09 21.806 87.75 21.806 85.578 21.101 C 83.406 20.395 81.513 19.019 80.17 17.172 C 78.828 15.324 78.105 13.099 78.105 10.815"
        fill="#3e2d4a"/>
    <path
        id="path_3"
        d="M 51.817 92.805 C 51.817 92.805 54.99 99.347 67.947 101.649 C 80.904 103.951 91.071 99.264 101.073 102.89 C 111.075 106.516 125.525 101.79 128.388 97.59 C 131.251 93.39 130.654 46.845 122.766 39.041 C 114.878 31.237 73.558 24.721 64.601 33.855 C 55.644 42.989 46.139 87.564 51.817 92.805 Z"
        fill="#3e2d4a"/>
    <path
        id="path_4"
        d="M 91.008 54.751 M 55.369 54.751 C 55.369 47.226 57.752 39.891 62.175 33.803 C 66.599 27.715 72.838 23.182 79.995 20.856 C 87.152 18.531 94.864 18.531 102.021 20.856 C 109.178 23.182 115.417 27.715 119.841 33.803 C 124.264 39.891 126.647 47.226 126.647 54.751 C 126.647 62.276 124.264 69.611 119.841 75.699 C 115.417 81.787 109.178 86.32 102.021 88.646 C 94.864 90.971 87.152 90.971 79.995 88.646 C 72.838 86.32 66.599 81.787 62.175 75.699 C 57.752 69.611 55.369 62.276 55.369 54.751"
        fill="#3e2d4a"/>
    <path
        id="path_5"
        d="M 105.625 85.884 C 105.625 85.884 107.939 113.638 105.625 116.722 C 103.311 119.806 88.665 117.494 84.81 116.722 C 80.955 115.95 79.41 85.884 81.726 85.884 C 84.042 85.884 105.185 79.696 105.625 85.884 Z"
        fill="#e69d7f"/>
    <path
        id="path_6"
        d="M 61.909 53.414 C 61.909 53.414 63.375 96.673 92.623 98.539 C 121.871 100.405 121.839 39.457 111.255 33.66 C 100.671 27.863 56.502 28.95 61.909 53.414 Z"
        fill="#e69d7f"/>
    <path
        id="path_7"
        d="M 91.94 62.675 C 91.94 62.675 97.523 75.99 96.087 76.875 C 94.651 77.76 90.444 77.599 89.309 76.62 C 88.174 75.641 89.654 61.186 91.94 62.675 Z"
        fill="#c05c5d"/>
    <path
        id="path_8"
        d="M 80.436 66.997 M 77.688 66.997 C 77.688 66.268 77.978 65.569 78.493 65.054 C 79.008 64.539 79.707 64.249 80.436 64.249 C 81.165 64.249 81.864 64.539 82.379 65.054 C 82.894 65.569 83.184 66.268 83.184 66.997 C 83.184 67.726 82.894 68.425 82.379 68.94 C 81.864 69.455 81.165 69.745 80.436 69.745 C 79.707 69.745 79.008 69.455 78.493 68.94 C 77.978 68.425 77.688 67.726 77.688 66.997"
        fill="#3e2d4a"/>
    <path
        id="path_9"
        d="M 104.028 65.703 M 101.28 65.703 C 101.28 64.974 101.57 64.275 102.085 63.76 C 102.6 63.245 103.299 62.955 104.028 62.955 C 104.757 62.955 105.456 63.245 105.971 63.76 C 106.486 64.275 106.776 64.974 106.776 65.703 C 106.776 66.432 106.486 67.131 105.971 67.646 C 105.456 68.161 104.757 68.451 104.028 68.451 C 103.299 68.451 102.6 68.161 102.085 67.646 C 101.57 67.131 101.28 66.432 101.28 65.703"
        fill="#3e2d4a"/>
    <path
        id="path_10"
        d="M 84.939 30.346 C 84.939 30.346 74.452 35.417 72.455 44.937 C 70.458 54.457 71.492 78.837 60.383 77.717 C 60.383 77.716 38.867 29.473 84.939 30.346 Z"
        fill="#3e2d4a"/>
    <path
        id="path_11"
        d="M 90.465 30.552 C 89.514 31.232 101.278 31.205 108.006 39.359 C 114.734 47.513 116.328 67.888 117.369 68.267 C 118.41 68.646 122.562 43.017 115.188 35.317 C 107.814 27.617 95.88 26.676 90.465 30.552 Z"
        fill="#3e2d4a"/>
    <path
        id="path_12"
        d="M 82.133 94.597 C 82.133 94.597 93.511 101.067 105.326 95.02 C 105.326 95.02 106.243 102.283 105.326 103.958 C 104.409 105.633 85.694 106.83 82.009 98.574 C 82.009 98.575 81.07 94.238 82.133 94.597 Z"
        fill="#c05c5d"/>
    <path
        id="path_13"
        d="M 114.846 70.004 C 114.846 70.004 117.646 59.175 122.53 63.028 C 127.414 66.881 122.994 78.2 118.169 79.228 C 113.344 80.256 112.178 75.589 114.846 70.004 Z"
        fill="#e69d7f"/>
    <path
        id="path_14"
        d="M 68.717 68.276 C 68.717 68.276 66.736 57.268 61.578 60.744 C 56.42 64.22 59.978 75.844 64.717 77.226 C 69.456 78.608 70.96 74.041 68.717 68.276 Z"
        fill="#e69d7f"/>
    <path
        id="path_15"
        d="M 102.933 56.05 C 102.933 56.05 108.167 53.444 111.26 57.44 C 113.98 60.951 107.65 58.007 105.286 58.398 C 102.922 58.789 99.812 58.521 102.933 56.05 Z"
        fill="#3e2d4a"/>
    <path
        id="path_16"
        d="M 82.36 56.555 C 82.36 56.555 77.114 53.968 74.035 57.973 C 71.328 61.495 77.647 58.529 80.014 58.91 C 82.381 59.291 85.482 59.014 82.36 56.555 Z"
        fill="#3e2d4a"/>
    <path
        id="path_17"
        d="M 80.221 78.867 L 79.856 78.86 C 77.366 78.765 75.01 77.696 73.299 75.884 C 71.588 74.073 70.654 71.661 70.699 69.169 C 70.745 66.678 71.767 64.302 73.543 62.554 C 75.32 60.807 77.713 59.825 80.205 59.821 L 80.57 59.828 C 83.06 59.923 85.416 60.992 87.127 62.804 C 88.838 64.615 89.772 67.027 89.727 69.519 C 89.681 72.01 88.659 74.386 86.883 76.134 C 85.106 77.881 82.713 78.863 80.221 78.867 Z M 80.205 60.967 C 78.017 60.976 75.918 61.842 74.36 63.378 C 72.802 64.914 71.907 67.001 71.867 69.188 C 71.827 71.375 72.646 73.493 74.146 75.085 C 75.647 76.677 77.713 77.619 79.899 77.708 L 80.221 77.715 C 82.409 77.706 84.508 76.84 86.066 75.304 C 87.624 73.768 88.519 71.681 88.559 69.494 C 88.599 67.307 87.78 65.189 86.28 63.597 C 84.779 62.005 82.713 61.063 80.527 60.974 Z"
        fill="#fffcf6"/>
    <path
        id="path_18"
        d="M 103.986 77.532 L 103.623 77.525 C 101.133 77.43 98.778 76.361 97.066 74.55 C 95.355 72.739 94.421 70.327 94.466 67.835 C 94.512 65.344 95.533 62.968 97.309 61.22 C 99.085 59.473 101.478 58.491 103.97 58.486 L 104.335 58.493 C 106.825 58.588 109.181 59.657 110.892 61.469 C 112.603 63.28 113.537 65.692 113.492 68.184 C 113.446 70.675 112.424 73.051 110.648 74.799 C 108.871 76.546 106.478 77.528 103.986 77.532 Z M 103.97 59.632 C 101.782 59.641 99.683 60.507 98.125 62.043 C 96.567 63.579 95.672 65.666 95.632 67.853 C 95.592 70.04 96.411 72.158 97.911 73.75 C 99.412 75.342 101.478 76.284 103.664 76.373 L 103.986 76.38 C 106.174 76.371 108.273 75.505 109.831 73.969 C 111.389 72.433 112.284 70.346 112.324 68.159 C 112.364 65.972 111.545 63.854 110.045 62.262 C 108.544 60.67 106.478 59.728 104.292 59.639 Z"
        fill="#fffcf6"/>
    <path
        id="path_19"
        d="M 71.549 67.674 C 71.478 67.673 71.407 67.66 71.34 67.635 L 67.86 66.256 C 67.744 66.214 67.645 66.136 67.577 66.033 C 67.509 65.93 67.476 65.808 67.483 65.685 C 67.49 65.562 67.536 65.444 67.615 65.349 C 67.694 65.255 67.801 65.188 67.921 65.159 C 68.041 65.13 68.167 65.14 68.28 65.188 L 71.763 66.564 C 71.887 66.613 71.991 66.704 72.055 66.821 C 72.12 66.938 72.141 67.074 72.116 67.205 C 72.091 67.337 72.021 67.455 71.918 67.54 C 71.815 67.626 71.686 67.672 71.552 67.672 Z"
        fill="#fffcf6"/>
    <path
        id="path_20"
        d="M 112.59 66.156 C 112.451 66.156 112.317 66.107 112.213 66.016 C 112.108 65.925 112.039 65.799 112.02 65.662 C 112.001 65.525 112.032 65.385 112.107 65.269 C 112.183 65.153 112.298 65.068 112.431 65.03 L 117.27 63.644 C 117.414 63.609 117.566 63.632 117.695 63.706 C 117.823 63.781 117.917 63.903 117.958 64.045 C 117.998 64.188 117.982 64.341 117.913 64.472 C 117.843 64.603 117.726 64.702 117.585 64.749 L 112.746 66.132 C 112.696 66.148 112.643 66.156 112.59 66.156 Z"
        fill="#fffcf6"/>
    <path
        id="path_21"
        d="M 88.486 28.073 C 88.486 28.073 89.805 51.521 96.268 53.651 C 102.731 55.781 118.623 55.195 119.39 52.631 C 120.157 50.067 107.067 29.431 97.674 26.117 C 81.202 20.317 66.981 47.095 68.863 53.55 C 70.745 60.005 84.897 54.35 87.916 53.525 C 90.935 52.7 87.882 32.71 88.486 28.073 Z"
        fill="#3e2d4a"/>
    <path
        id="path_22"
        d="M 72.391 77.104 C 72.391 77.104 87.363 68.933 93.815 70.28 C 100.267 71.627 111.641 72.08 112.1 74.418 C 112.559 76.756 97.647 75.353 93.043 75.691 C 88.439 76.029 70.672 80.9 72.391 77.104 Z"
        fill="#c05c5d"
        fill-opacity="0.21"
        stroke-opacity="0.21"/>
    <path
        id="path_23"
        d="M 80.805 71.914 C 80.603 71.914 80.408 71.843 80.253 71.714 C 80.098 71.585 79.993 71.406 79.957 71.208 C 79.92 71.009 79.955 70.804 80.054 70.629 C 80.153 70.453 80.31 70.317 80.499 70.246 C 81.113 70.081 81.675 69.765 82.135 69.327 C 82.186 69.189 82.274 69.067 82.389 68.976 C 82.504 68.884 82.642 68.826 82.788 68.807 C 82.934 68.789 83.083 68.81 83.217 68.87 C 83.432 68.963 83.602 69.136 83.693 69.351 C 83.783 69.567 83.786 69.81 83.702 70.028 C 83.566 70.396 83.049 71.122 81.11 71.857 C 81.013 71.895 80.909 71.914 80.805 71.914 Z"
        fill="#c05c5d"/>
    <path
        id="path_24"
        d="M 103.426 71.291 C 102.532 71.224 101.666 70.95 100.896 70.491 C 100.733 70.409 100.6 70.276 100.517 70.113 C 100.433 69.95 100.404 69.765 100.434 69.585 C 100.463 69.404 100.549 69.237 100.679 69.109 C 100.809 68.98 100.977 68.897 101.158 68.87 C 101.339 68.844 101.524 68.875 101.686 68.961 C 102.217 69.311 102.83 69.518 103.464 69.561 C 103.601 69.509 103.75 69.495 103.894 69.52 C 104.038 69.545 104.173 69.609 104.285 69.704 C 104.396 69.799 104.48 69.922 104.528 70.061 C 104.602 70.283 104.587 70.525 104.487 70.736 C 104.386 70.948 104.208 71.112 103.99 71.196 C 103.81 71.264 103.618 71.296 103.426 71.291 Z"
        fill="#c05c5d"/>
    <path
        id="path_25"
        d="M 89.16 69.749 C 89.009 69.752 88.864 69.696 88.754 69.593 C 88.644 69.49 88.58 69.348 88.574 69.197 C 88.568 69.047 88.622 68.9 88.723 68.789 C 88.824 68.677 88.966 68.61 89.116 68.602 L 95.01 68.142 C 95.111 68.131 95.214 68.147 95.306 68.19 C 95.399 68.233 95.478 68.3 95.534 68.385 C 95.591 68.47 95.624 68.568 95.628 68.67 C 95.639 68.822 95.59 68.972 95.491 69.087 C 95.392 69.203 95.251 69.274 95.099 69.286 L 89.205 69.745 Z"
        fill="#fffcf6"/>
    <path
        id="path_26"
        d="M 82.161 21.637 C 82.022 21.636 81.884 21.602 81.761 21.537 C 78.599 19.906 76.713 17.631 76.161 14.777 C 74.941 8.513 80.632 1.799 80.874 1.517 C 81.023 1.347 81.234 1.242 81.46 1.226 C 81.686 1.21 81.91 1.284 82.082 1.431 C 82.254 1.579 82.361 1.789 82.379 2.014 C 82.398 2.24 82.326 2.464 82.181 2.638 C 82.128 2.702 76.79 9.01 77.854 14.451 C 78.304 16.76 79.887 18.628 82.554 20.007 C 82.726 20.096 82.862 20.24 82.942 20.416 C 83.022 20.592 83.04 20.79 82.994 20.978 C 82.948 21.165 82.84 21.332 82.687 21.451 C 82.535 21.57 82.347 21.635 82.154 21.634 Z"
        fill="#3e2d4a"/>
    <path
        id="path_27"
        d="M 94.637 23.562 C 94.46 23.562 94.288 23.508 94.143 23.407 C 93.998 23.305 93.887 23.162 93.827 22.996 C 93.766 22.83 93.759 22.649 93.804 22.478 C 93.85 22.307 93.947 22.155 94.083 22.041 C 94.145 21.986 100.448 16.641 100.291 11.099 C 100.224 8.748 98.972 6.644 96.566 4.847 C 96.384 4.71 96.263 4.507 96.23 4.281 C 96.198 4.056 96.256 3.826 96.392 3.644 C 96.528 3.461 96.732 3.34 96.957 3.306 C 97.182 3.273 97.412 3.33 97.595 3.466 C 100.449 5.596 101.935 8.149 102.014 11.053 C 102.189 17.434 95.472 23.121 95.187 23.362 C 95.033 23.491 94.838 23.562 94.637 23.562 Z"
        fill="#3e2d4a"/>
    <path
        id="path_28"
        d="M 125.521 96.276 C 125.341 96.277 125.166 96.221 125.019 96.117 C 124.872 96.013 124.762 95.866 124.703 95.696 C 124.644 95.526 124.64 95.342 124.691 95.169 C 124.742 94.997 124.846 94.845 124.988 94.734 C 127.161 92.916 128.811 90.552 129.768 87.886 C 130.725 85.22 130.956 82.347 130.436 79.562 C 129.53 75.49 128.391 71.473 127.024 67.531 C 124.6 60.031 122.098 52.272 122.056 44.783 C 122.055 44.555 122.145 44.335 122.305 44.173 C 122.466 44.01 122.685 43.918 122.913 43.917 L 122.913 43.917 C 123.141 43.917 123.359 44.007 123.521 44.168 C 123.682 44.328 123.774 44.546 123.775 44.774 C 123.816 51.996 126.275 59.622 128.658 67 C 130.047 71.008 131.205 75.092 132.125 79.233 C 134.156 89.669 126.374 95.839 126.041 96.096 C 125.893 96.212 125.709 96.276 125.521 96.276 Z"
        fill="#3e2d4a"/>
    <path
        id="path_29"
        d="M 128.394 56.976 C 128.359 56.976 128.323 56.974 128.288 56.969 C 128.138 56.951 127.995 56.893 127.875 56.802 C 127.754 56.711 127.659 56.59 127.6 56.451 C 127.541 56.311 127.52 56.159 127.539 56.009 C 128.702 46.536 126.891 38.785 122.162 32.977 C 114.538 23.611 101.809 22.465 101.682 22.456 C 101.455 22.437 101.244 22.328 101.097 22.154 C 100.949 21.98 100.877 21.754 100.895 21.527 C 100.914 21.299 101.022 21.088 101.195 20.94 C 101.369 20.792 101.595 20.719 101.822 20.737 C 102.374 20.783 115.415 21.962 123.499 31.888 C 128.536 38.074 130.47 46.263 129.248 56.221 C 129.222 56.429 129.12 56.62 128.963 56.759 C 128.806 56.898 128.604 56.975 128.394 56.976 Z"
        fill="#3e2d4a"/>
    <path
        id="path_30"
        d="M 93.402 90.469 C 92.502 90.469 91.52 90.441 90.638 90.409 C 90.334 90.396 90.047 90.263 89.841 90.039 C 89.635 89.815 89.526 89.518 89.538 89.214 C 89.563 88.915 89.7 88.635 89.92 88.432 C 90.141 88.228 90.431 88.115 90.731 88.114 C 92.309 88.211 93.892 88.201 95.469 88.084 C 95.658 88.017 95.861 88.001 96.059 88.038 C 96.256 88.075 96.44 88.163 96.592 88.294 C 96.743 88.425 96.858 88.594 96.923 88.784 C 97.022 89.074 97.004 89.391 96.871 89.667 C 96.738 89.943 96.501 90.156 96.213 90.259 C 95.289 90.447 94.344 90.517 93.402 90.469 Z"
        fill="#c05c5d"/>
    <path
        id="path_31"
        d="M 65.741 74.533 C 65.655 74.534 65.57 74.522 65.488 74.496 C 65.27 74.429 65.087 74.278 64.98 74.077 C 64.873 73.875 64.85 73.639 64.916 73.421 C 65.362 71.921 65.392 70.328 65.001 68.813 C 64.609 67.298 63.813 65.917 62.696 64.821 C 62.532 64.667 62.434 64.455 62.424 64.23 C 62.414 64.006 62.492 63.786 62.641 63.617 C 62.791 63.449 63 63.346 63.225 63.33 C 63.449 63.314 63.671 63.387 63.843 63.532 C 65.214 64.843 66.195 66.508 66.675 68.343 C 67.156 70.178 67.118 72.111 66.566 73.925 C 66.511 74.101 66.402 74.255 66.253 74.365 C 66.105 74.474 65.925 74.533 65.741 74.533 Z"
        fill="#c05c5d"/>
    <path
        id="path_32"
        d="M 116.833 77.058 C 116.808 77.058 116.782 77.058 116.755 77.058 C 116.527 77.037 116.317 76.927 116.17 76.752 C 116.023 76.577 115.952 76.351 115.971 76.123 C 116.543 69.664 119.746 66.259 119.884 66.116 C 120.042 65.952 120.26 65.857 120.488 65.852 C 120.716 65.848 120.936 65.934 121.101 66.092 C 121.266 66.25 121.361 66.467 121.367 66.695 C 121.372 66.923 121.286 67.144 121.129 67.309 C 119.08 69.868 117.878 73.002 117.692 76.275 C 117.672 76.489 117.573 76.688 117.414 76.833 C 117.255 76.978 117.048 77.058 116.833 77.058 Z"
        fill="#c05c5d"/>
    <path
        id="path_33"
        d="M 68.976 68.989 C 68.976 68.989 76.464 75.243 77.052 76.197 C 77.64 77.151 77.404 89.322 76.229 89.175 C 75.054 89.028 67.918 77.429 67.137 77.452 C 66.356 77.475 66.703 78.727 66.703 78.727 C 66.703 78.727 72.82 88.827 76.494 91.679 C 80.168 94.531 103.102 94.661 107.775 92.019 C 112.448 89.377 116.408 79.492 116.049 79.285 C 115.69 79.078 114.801 78.272 114.654 78.612 C 114.528 78.901 108.186 90.202 107.393 89.848 C 106.6 89.494 107.48 76.948 107.393 75.763 C 107.306 74.578 116.575 65.582 116.575 65.582 L 117.246 64.454 L 116.309 64.199 C 116.309 64.199 107.219 73.273 104.942 73.22 C 102.665 73.167 78.792 74.893 77.686 74.491 C 76.58 74.089 69.194 66.091 68.27 66.414 C 67.346 66.737 68.717 68.276 68.976 68.989 Z"
        fill="#fffcf6"/>
    <path
        id="path_34"
        d="M 66.626 115.502 C 66.626 115.502 86.191 138.893 101.28 132.634 C 116.369 126.375 130.505 109.411 122.918 107.159 C 115.331 104.907 54.768 106.092 66.626 115.502 Z"
        fill="#e69d7f"/>
    <path
        id="path_35"
        d="M 152.533 101.645 C 152.533 101.645 149.884 80.998 148.994 79.66 C 148.104 78.322 141.377 88.476 143.194 94.232 C 145.011 99.988 119.877 100.132 121.837 108.538 C 123.797 116.944 122.591 128.303 133.019 128.883 C 143.447 129.463 155.337 126.636 157.775 122.764 C 160.213 118.892 152.533 101.645 152.533 101.645 Z"
        fill="#e69d7f"/>
    <path
        id="path_36"
        d="M 166.175 120.185 C 166.175 120.185 193.192 154.373 187.918 176.859 C 182.644 199.345 156.952 202.984 151.678 200.073 C 146.404 197.162 148.386 100.705 166.175 120.185 Z"
        fill="#f54747"/>
    <path
        id="path_37"
        d="M 33.077 115.957 C 33.077 115.957 -2.182 153.828 0.107 187.633 C 1.996 215.541 44.832 211.295 50.107 208.66 C 55.382 206.025 50.866 98.319 33.077 115.957 Z"
        fill="#f54747"/>
    <path
        id="path_38"
        d="M 154.546 106.553 C 154.546 106.553 189.938 176.558 180.216 188.543 C 170.494 200.528 153.216 201.897 146.316 191.957 C 142.29 186.157 147.916 134.891 141.966 128.606 C 136.016 122.321 152.66 103.255 154.546 106.553 Z"
        fill="#e69d7f"/>
    <path
        id="path_39"
        d="M 100.097 178.724 C 100.097 178.724 124.159 187.802 128.008 195.454 C 131.857 203.106 117.576 193.774 114.217 192.386 C 110.858 190.998 122.969 200.646 123.334 202.877 C 123.699 205.108 109.86 196.301 109.86 196.301 C 109.86 196.301 119.474 206.473 118.527 208.594 C 117.58 210.715 106.586 201.986 106.586 201.986 C 106.586 201.986 112.291 211.021 110.421 212.303 C 108.551 213.585 96.129 198.603 85.89 199.215 C 75.651 199.827 36.882 222.315 22.13 199.725 C 7.378 177.135 19.83 166.371 48.388 166.688 C 76.946 167.005 92.165 175.395 100.097 178.724 Z"
        fill="#e69d7f"/>
</svg>
