<svg
    xmlns="http://www.w3.org/2000/svg"
    viewBox="0 0 185 207"
    id="vector">
    <path
        id="path"
        d="M 29.603 192.613 L 156.84 192.613 C 156.84 192.613 161.295 119.454 145.087 108.751 C 128.879 98.048 53.076 100.281 36.276 109.425 C 19.476 118.569 29.603 192.613 29.603 192.613 Z"
        fill="#f54747"/>
    <path
        id="path_1"
        d="M 50.787 93.337 C 50.596 93.337 50.41 93.271 50.263 93.149 C 49.914 92.864 41.753 85.995 46.219 72.157 C 47.475 68.307 48.957 64.534 50.656 60.857 C 53.083 55.409 54.839 51.476 55.173 43.057 C 55.177 42.911 55.219 42.768 55.297 42.644 C 55.374 42.52 55.483 42.419 55.612 42.351 C 55.742 42.282 55.887 42.25 56.033 42.257 C 56.253 42.266 56.461 42.362 56.61 42.523 C 56.76 42.685 56.84 42.899 56.833 43.119 C 56.484 51.852 54.582 56.119 52.172 61.524 C 50.5 65.145 49.039 68.861 47.797 72.651 C 43.676 85.423 51.235 91.788 51.314 91.851 C 51.446 91.96 51.541 92.106 51.586 92.271 C 51.631 92.435 51.624 92.61 51.567 92.771 C 51.509 92.931 51.404 93.07 51.264 93.169 C 51.125 93.267 50.959 93.32 50.788 93.321 Z"
        fill="#3e2d4a"/>
    <path
        id="path_2"
        d="M 85.555 10.406 M 75.149 10.406 C 75.149 8.209 75.845 6.067 77.136 4.29 C 78.428 2.512 80.25 1.188 82.339 0.509 C 84.429 -0.17 86.681 -0.17 88.771 0.509 C 90.86 1.188 92.682 2.512 93.974 4.29 C 95.265 6.067 95.961 8.209 95.961 10.406 C 95.961 12.603 95.265 14.745 93.974 16.522 C 92.682 18.3 90.86 19.624 88.771 20.303 C 86.681 20.982 84.429 20.982 82.339 20.303 C 80.25 19.624 78.428 18.3 77.136 16.522 C 75.845 14.745 75.149 12.603 75.149 10.406"
        fill="#3e2d4a"/>
    <path
        id="path_3"
        d="M 49.857 89.295 C 49.857 89.295 52.908 95.589 65.375 97.805 C 77.842 100.021 87.625 95.51 97.249 98.999 C 106.873 102.488 120.777 97.942 123.532 93.899 C 126.287 89.856 125.712 45.072 118.122 37.564 C 110.532 30.056 70.774 23.786 62.159 32.574 C 53.544 41.362 44.39 84.252 49.857 89.295 Z"
        fill="#3e2d4a"/>
    <path
        id="path_4"
        d="M 87.564 52.681 M 53.273 52.681 C 53.273 43.59 56.888 34.862 63.317 28.434 C 69.745 22.005 78.473 18.39 87.564 18.39 C 96.655 18.39 105.383 22.005 111.811 28.434 C 118.24 34.862 121.855 43.59 121.855 52.681 C 121.855 61.772 118.24 70.5 111.811 76.928 C 105.383 83.357 96.655 86.972 87.564 86.972 C 78.473 86.972 69.745 83.357 63.317 76.928 C 56.888 70.5 53.273 61.772 53.273 52.681"
        fill="#3e2d4a"/>
    <path
        id="path_5"
        d="M 101.629 82.636 C 101.629 82.636 103.855 109.336 101.629 112.308 C 99.403 115.28 85.311 113.051 81.601 112.308 C 77.891 111.565 76.408 82.636 78.634 82.636 C 80.86 82.636 101.207 76.682 101.629 82.636 Z"
        fill="#e69d7f"/>
    <path
        id="path_6"
        d="M 59.567 51.395 C 59.567 51.395 60.975 93.019 89.117 94.814 C 117.259 96.609 117.228 37.966 107.045 32.389 C 96.862 26.812 54.363 27.856 59.567 51.395 Z"
        fill="#e69d7f"/>
    <path
        id="path_7"
        d="M 88.461 60.305 C 88.461 60.305 93.836 73.117 92.452 73.966 C 91.068 74.815 87.022 74.666 85.932 73.721 C 84.842 72.776 86.261 58.872 88.461 60.305 Z"
        fill="#c05c5d"/>
    <path
        id="path_8"
        d="M 77.391 68.732 M 74.747 68.732 C 74.747 68.031 75.026 67.358 75.521 66.862 C 76.017 66.367 76.69 66.088 77.391 66.088 C 78.092 66.088 78.765 66.367 79.261 66.862 C 79.756 67.358 80.035 68.031 80.035 68.732 C 80.035 69.433 79.756 70.106 79.261 70.602 C 78.765 71.097 78.092 71.376 77.391 71.376 C 76.69 71.376 76.017 71.097 75.521 70.602 C 75.026 70.106 74.747 69.433 74.747 68.732"
        fill="#3e2d4a"/>
    <path
        id="path_9"
        d="M 100.092 67.486 M 97.448 67.486 C 97.448 66.785 97.727 66.112 98.222 65.616 C 98.718 65.121 99.391 64.842 100.092 64.842 C 100.793 64.842 101.466 65.121 101.962 65.616 C 102.457 66.112 102.736 66.785 102.736 67.486 C 102.736 68.187 102.457 68.86 101.962 69.356 C 101.466 69.851 100.793 70.13 100.092 70.13 C 99.391 70.13 98.718 69.851 98.222 69.356 C 97.727 68.86 97.448 68.187 97.448 67.486"
        fill="#3e2d4a"/>
    <path
        id="path_10"
        d="M 81.724 29.198 C 81.724 29.198 71.634 34.077 69.712 43.237 C 67.79 52.397 68.786 75.854 58.096 74.777 C 58.096 74.777 37.394 28.358 81.724 29.198 Z"
        fill="#3e2d4a"/>
    <path
        id="path_11"
        d="M 87.042 29.397 C 86.127 30.051 97.442 30.025 103.92 37.871 C 110.398 45.717 111.928 65.321 112.929 65.686 C 113.93 66.051 117.929 41.386 110.829 33.986 C 103.729 26.586 92.256 25.667 87.042 29.397 Z"
        fill="#3e2d4a"/>
    <path
        id="path_12"
        d="M 79.027 91.02 C 79.027 91.02 89.975 97.246 101.343 91.427 C 101.343 91.427 102.227 98.415 101.343 100.027 C 100.459 101.639 82.454 102.791 78.91 94.847 C 78.908 94.847 78.001 90.675 79.027 91.02 Z"
        fill="#c05c5d"/>
    <path
        id="path_13"
        d="M 110.5 67.358 C 110.5 67.358 113.195 56.938 117.893 60.646 C 122.591 64.354 118.342 75.246 113.693 76.232 C 109.044 77.218 107.936 72.73 110.5 67.358 Z"
        fill="#e69d7f"/>
    <path
        id="path_14"
        d="M 66.118 65.695 C 66.118 65.695 64.21 55.103 59.247 58.448 C 54.284 61.793 57.708 72.973 62.267 74.306 C 66.826 75.639 68.273 71.242 66.118 65.695 Z"
        fill="#e69d7f"/>
    <path
        id="path_15"
        d="M 99.035 53.931 C 99.035 53.931 104.071 51.424 107.047 55.269 C 109.665 58.647 103.574 55.815 101.299 56.191 C 99.024 56.567 96.035 56.308 99.035 53.931 Z"
        fill="#3e2d4a"/>
    <path
        id="path_16"
        d="M 79.244 54.417 C 79.244 54.417 74.199 51.928 71.236 55.781 C 68.629 59.17 74.709 56.316 76.986 56.681 C 79.263 57.046 82.251 56.783 79.244 54.417 Z"
        fill="#3e2d4a"/>
    <path
        id="path_17"
        d="M 77.186 75.884 L 76.832 75.877 C 74.437 75.783 72.172 74.754 70.527 73.011 C 68.882 71.269 67.984 68.948 68.028 66.552 C 68.072 64.156 69.055 61.87 70.763 60.189 C 72.472 58.508 74.773 57.563 77.17 57.558 L 77.521 57.565 C 79.916 57.658 82.18 58.688 83.826 60.43 C 85.471 62.172 86.369 64.493 86.325 66.889 C 86.281 69.285 85.299 71.57 83.591 73.251 C 81.883 74.932 79.582 75.878 77.186 75.884 Z M 77.171 58.664 C 75.063 58.668 73.039 59.5 71.537 60.978 C 70.034 62.456 69.17 64.467 69.132 66.574 C 69.093 68.681 69.883 70.722 71.331 72.254 C 72.778 73.786 74.771 74.691 76.877 74.772 L 77.186 74.779 C 79.294 74.774 81.317 73.943 82.819 72.464 C 84.322 70.986 85.185 68.975 85.223 66.868 C 85.262 64.761 84.471 62.72 83.024 61.189 C 81.576 59.657 79.584 58.752 77.478 58.671 Z"
        fill="#fffcf6"/>
    <path
        id="path_18"
        d="M 100.047 74.6 L 99.695 74.593 C 97.3 74.499 95.035 73.47 93.39 71.727 C 91.745 69.985 90.847 67.664 90.891 65.268 C 90.935 62.872 91.918 60.586 93.626 58.905 C 95.335 57.224 97.636 56.279 100.033 56.274 L 100.384 56.281 C 102.779 56.375 105.044 57.404 106.689 59.147 C 108.334 60.889 109.232 63.21 109.188 65.606 C 109.144 68.002 108.161 70.288 106.453 71.969 C 104.744 73.65 102.443 74.595 100.046 74.6 Z M 100.034 57.38 C 97.926 57.384 95.902 58.216 94.4 59.694 C 92.897 61.172 92.033 63.183 91.995 65.29 C 91.956 67.397 92.746 69.438 94.194 70.97 C 95.641 72.502 97.634 73.407 99.74 73.488 L 100.047 73.495 C 102.155 73.491 104.179 72.659 105.681 71.181 C 107.184 69.703 108.048 67.692 108.086 65.585 C 108.125 63.478 107.335 61.437 105.887 59.905 C 104.44 58.373 102.447 57.468 100.341 57.387 Z"
        fill="#fffcf6"/>
    <path
        id="path_19"
        d="M 68.842 65.116 C 68.774 65.115 68.706 65.102 68.642 65.078 L 65.293 63.754 C 65.18 63.715 65.082 63.641 65.015 63.542 C 64.948 63.443 64.915 63.324 64.921 63.205 C 64.926 63.085 64.971 62.971 65.047 62.879 C 65.124 62.787 65.228 62.722 65.345 62.695 C 65.461 62.667 65.583 62.678 65.693 62.726 L 69.045 64.05 C 69.165 64.097 69.264 64.184 69.327 64.296 C 69.389 64.409 69.41 64.539 69.386 64.666 C 69.363 64.792 69.296 64.906 69.197 64.988 C 69.098 65.071 68.973 65.116 68.845 65.116 Z"
        fill="#fffcf6"/>
    <path
        id="path_20"
        d="M 108.33 63.655 C 108.197 63.656 108.067 63.608 107.967 63.52 C 107.866 63.433 107.8 63.312 107.781 63.18 C 107.763 63.048 107.792 62.914 107.865 62.802 C 107.938 62.69 108.049 62.608 108.177 62.572 L 112.835 61.239 C 112.973 61.208 113.118 61.23 113.24 61.303 C 113.362 61.375 113.451 61.492 113.49 61.628 C 113.528 61.764 113.513 61.91 113.447 62.036 C 113.381 62.161 113.269 62.257 113.135 62.302 L 108.479 63.633 C 108.431 63.648 108.38 63.655 108.33 63.655 Z"
        fill="#fffcf6"/>
    <path
        id="path_21"
        d="M 85.138 27.012 C 85.138 27.012 86.407 49.574 92.626 51.623 C 98.845 53.672 114.135 53.109 114.874 50.641 C 115.613 48.173 103.017 28.314 93.979 25.13 C 78.129 19.545 64.446 45.315 66.257 51.53 C 68.068 57.745 81.684 52.304 84.589 51.506 C 87.494 50.708 84.557 31.474 85.138 27.012 Z"
        fill="#3e2d4a"/>
    <path
        id="path_22"
        d="M 85.785 67.112 C 85.646 67.107 85.514 67.049 85.416 66.951 C 85.317 66.852 85.26 66.72 85.254 66.581 C 85.249 66.442 85.296 66.306 85.387 66.201 C 85.478 66.095 85.605 66.028 85.743 66.012 L 91.414 65.57 C 91.512 65.556 91.612 65.57 91.703 65.611 C 91.793 65.652 91.87 65.717 91.924 65.8 C 91.978 65.883 92.008 65.98 92.009 66.079 C 92.02 66.225 91.972 66.369 91.877 66.481 C 91.782 66.592 91.646 66.661 91.5 66.672 L 85.829 67.114 Z"
        fill="#fffcf6"/>
    <path
        id="path_23"
        d="M 79.058 20.819 C 78.926 20.818 78.796 20.787 78.678 20.726 C 75.638 19.156 73.821 16.968 73.286 14.226 C 72.114 8.199 77.586 1.739 77.823 1.467 C 77.936 1.332 78.09 1.236 78.261 1.194 C 78.432 1.151 78.613 1.165 78.776 1.233 C 78.939 1.3 79.076 1.418 79.167 1.569 C 79.258 1.72 79.299 1.896 79.283 2.072 C 79.267 2.248 79.196 2.414 79.079 2.546 C 79.028 2.608 73.892 8.677 74.916 13.912 C 75.352 16.134 76.873 17.931 79.439 19.258 C 79.604 19.343 79.735 19.482 79.812 19.651 C 79.889 19.819 79.907 20.009 79.863 20.19 C 79.819 20.37 79.716 20.53 79.57 20.645 C 79.425 20.76 79.245 20.823 79.059 20.823 Z"
        fill="#3e2d4a"/>
    <path
        id="path_24"
        d="M 91.054 22.672 C 90.884 22.672 90.718 22.619 90.579 22.521 C 90.44 22.424 90.335 22.285 90.277 22.126 C 90.219 21.966 90.211 21.792 90.255 21.628 C 90.299 21.464 90.393 21.317 90.523 21.208 C 90.583 21.155 96.647 16.008 96.497 10.678 C 96.435 8.416 95.228 6.393 92.913 4.665 C 92.772 4.56 92.668 4.414 92.616 4.246 C 92.563 4.079 92.565 3.899 92.622 3.733 C 92.678 3.566 92.786 3.422 92.929 3.321 C 93.073 3.22 93.245 3.167 93.42 3.17 C 93.596 3.172 93.766 3.231 93.906 3.336 C 96.647 5.385 98.08 7.842 98.155 10.636 C 98.323 16.776 91.861 22.247 91.584 22.48 C 91.436 22.605 91.248 22.673 91.054 22.672 Z"
        fill="#3e2d4a"/>
    <path
        id="path_25"
        d="M 120.773 92.636 C 120.6 92.637 120.431 92.583 120.29 92.483 C 120.149 92.383 120.043 92.241 119.986 92.078 C 119.929 91.915 119.925 91.737 119.975 91.572 C 120.024 91.406 120.124 91.259 120.26 91.153 C 122.351 89.404 123.939 87.129 124.86 84.563 C 125.781 81.998 126.003 79.233 125.502 76.553 C 124.63 72.632 123.534 68.765 122.219 64.97 C 119.889 57.754 117.481 50.292 117.441 43.089 C 117.44 42.943 117.478 42.8 117.55 42.674 C 117.622 42.547 117.726 42.442 117.852 42.368 C 117.977 42.295 118.12 42.256 118.266 42.255 L 118.266 42.255 C 118.485 42.255 118.695 42.342 118.85 42.497 C 119.006 42.651 119.094 42.861 119.095 43.08 C 119.133 50.026 121.503 57.364 123.795 64.459 C 125.132 68.317 126.245 72.249 127.129 76.236 C 129.083 86.278 121.597 92.214 121.277 92.461 C 121.133 92.574 120.956 92.636 120.773 92.636 Z"
        fill="#3e2d4a"/>
    <path
        id="path_26"
        d="M 123.536 54.822 C 123.503 54.822 123.469 54.819 123.436 54.815 C 123.218 54.788 123.019 54.676 122.884 54.502 C 122.748 54.329 122.687 54.109 122.713 53.891 C 123.832 44.782 122.096 37.33 117.551 31.738 C 110.231 22.738 97.958 21.615 97.837 21.606 C 97.691 21.594 97.551 21.544 97.431 21.46 C 97.311 21.377 97.215 21.263 97.154 21.131 C 97.092 20.998 97.066 20.852 97.079 20.706 C 97.099 20.488 97.204 20.286 97.371 20.145 C 97.538 20.003 97.754 19.932 97.972 19.948 C 98.503 19.992 111.051 21.126 118.829 30.677 C 123.675 36.629 125.537 44.508 124.36 54.09 C 124.336 54.291 124.238 54.477 124.087 54.612 C 123.935 54.747 123.739 54.822 123.536 54.822 Z"
        fill="#3e2d4a"/>
    <path
        id="path_27"
        d="M 89.885 86.771 C 88.952 86.771 87.961 86.74 87.219 86.714 C 86.999 86.705 86.791 86.609 86.642 86.448 C 86.492 86.286 86.412 86.072 86.419 85.852 C 86.419 85.704 86.459 85.559 86.536 85.433 C 86.613 85.307 86.723 85.205 86.855 85.137 C 86.986 85.07 87.134 85.041 87.281 85.052 C 88.827 85.15 90.378 85.137 91.922 85.014 C 92.13 84.953 92.354 84.975 92.547 85.075 C 92.74 85.175 92.887 85.346 92.957 85.551 C 93.028 85.751 93.017 85.971 92.927 86.163 C 92.837 86.355 92.674 86.504 92.475 86.577 C 91.623 86.745 90.753 86.81 89.885 86.771 Z"
        fill="#c05c5d"/>
    <path
        id="path_28"
        d="M 63.252 71.715 C 63.17 71.716 63.089 71.705 63.011 71.68 C 62.872 71.638 62.746 71.56 62.646 71.453 C 62.547 71.347 62.477 71.216 62.445 71.074 C 62.412 70.932 62.417 70.784 62.46 70.645 C 62.888 69.202 62.916 67.669 62.539 66.211 C 62.162 64.753 61.396 63.425 60.322 62.37 C 60.184 62.255 60.086 62.099 60.044 61.925 C 60.002 61.75 60.018 61.566 60.089 61.401 C 60.16 61.236 60.282 61.099 60.438 61.009 C 60.594 60.92 60.774 60.883 60.953 60.905 C 61.131 60.927 61.297 61.006 61.427 61.13 C 62.745 62.392 63.688 63.995 64.149 65.76 C 64.611 67.525 64.574 69.385 64.042 71.13 C 63.991 71.299 63.886 71.448 63.744 71.553 C 63.602 71.659 63.429 71.715 63.252 71.715 Z"
        fill="#c05c5d"/>
    <path
        id="path_29"
        d="M 112.413 74.145 C 112.389 74.145 112.367 74.145 112.34 74.145 C 112.121 74.125 111.918 74.019 111.777 73.851 C 111.636 73.682 111.567 73.464 111.586 73.245 C 111.779 69.717 113.097 66.342 115.347 63.617 C 115.499 63.459 115.708 63.367 115.928 63.363 C 116.147 63.358 116.36 63.441 116.519 63.592 C 116.677 63.744 116.77 63.953 116.775 64.172 C 116.78 64.392 116.698 64.605 116.547 64.764 C 114.578 67.227 113.423 70.243 113.242 73.391 C 113.223 73.598 113.128 73.79 112.974 73.929 C 112.821 74.069 112.62 74.146 112.413 74.145 Z"
        fill="#c05c5d"/>
    <path
        id="path_30"
        d="M 64.104 111.134 C 64.104 111.134 82.929 133.64 97.448 127.618 C 111.967 121.596 125.568 105.273 118.268 103.106 C 110.968 100.939 52.694 102.081 64.104 111.134 Z"
        fill="#e69d7f"/>
    <path
        id="path_31"
        d="M 113.826 140.877 C 113.826 140.877 102.856 131.025 91.386 136.592 C 79.916 142.159 83.407 153.724 72.934 151.584 C 62.461 149.444 43.486 152.676 48 164.004 C 52.514 175.332 23.636 184.191 34.607 198.752 C 45.578 213.313 75.189 202.121 84.285 205.119 C 93.381 208.117 114.826 209.401 117.317 200.837 C 119.808 192.273 135.769 190.985 133.275 179.849 C 130.781 168.713 128.29 153.298 113.826 140.877 Z"
        fill="#ffffff"/>
    <path
        id="path_32"
        d="M 77.588 166.781 C 77.588 166.781 88.788 180.23 88.759 193.181 C 88.741 201.421 82.675 187.53 80.592 184.72 C 78.509 181.91 85.078 194.014 82.902 197.892 C 81.839 199.792 75.058 185.785 75.058 185.785 C 75.058 185.785 77.937 198.939 76.102 200.22 C 74.267 201.501 69.538 188.845 69.538 188.845 C 69.538 188.845 69.759 199.123 67.579 199.251 C 65.399 199.379 66.179 188.816 57.44 184.242 C 48.701 179.668 8.857 211.327 7.91 185.381 C 6.963 159.435 18.652 150.445 45.729 155.159 C 67.098 158.881 70.469 161.235 77.588 166.781 Z"
        fill="#e69d7f"/>
    <path
        id="path_33"
        d="M 102.498 166.791 C 102.498 166.791 91.298 180.24 91.324 193.191 C 91.344 201.431 97.41 187.54 99.491 184.73 C 101.572 181.92 95.007 194.024 97.183 197.902 C 98.246 199.791 105.03 185.791 105.03 185.791 C 105.03 185.791 102.151 198.945 103.984 200.226 C 105.817 201.507 110.55 188.851 110.55 188.851 C 110.55 188.851 110.329 199.129 112.507 199.257 C 114.685 199.385 113.907 188.822 122.648 184.248 C 131.389 179.674 176.285 214.448 177.229 188.497 C 178.173 162.546 161.435 150.45 134.356 155.164 C 112.988 158.878 109.616 161.235 102.498 166.791 Z"
        fill="#e69d7f"/>
    <path
        id="path_34"
        d="M 114.964 189.407 C 114.964 189.407 115.203 166.642 127.643 166.792 C 140.083 166.942 145.997 178.059 134.289 184.618 C 122.581 191.177 114.635 193.845 114.964 189.407 Z"
        fill="#ffffff"/>
    <path
        id="path_35"
        d="M 124.351 175.227 C 124.351 175.227 126.339 179.857 131.032 180.319 C 135.725 180.781 146.391 180.319 147.317 187.044 C 148.243 193.769 142.67 203.044 135.834 202.117 C 128.998 201.19 121.983 199.793 116.219 203.656 C 110.455 207.519 116.224 172.454 124.351 175.227 Z"
        fill="#ffffff"/>
    <path
        id="path_36"
        d="M 130.622 139.161 M 125.057 139.161 C 125.057 137.986 125.429 136.841 126.12 135.89 C 126.81 134.939 127.785 134.231 128.902 133.868 C 130.02 133.505 131.224 133.505 132.342 133.868 C 133.459 134.231 134.434 134.939 135.124 135.89 C 135.815 136.841 136.187 137.986 136.187 139.161 C 136.187 140.336 135.815 141.481 135.124 142.432 C 134.434 143.383 133.459 144.091 132.342 144.454 C 131.224 144.817 130.02 144.817 128.902 144.454 C 127.785 144.091 126.81 143.383 126.12 142.432 C 125.429 141.481 125.057 140.336 125.057 139.161"
        fill="#ffffff"/>
    <path
        id="path_37"
        d="M 66.095 139.161 M 60.53 139.161 C 60.53 137.686 61.117 136.269 62.16 135.226 C 63.203 134.183 64.62 133.596 66.095 133.596 C 67.57 133.596 68.987 134.183 70.03 135.226 C 71.073 136.269 71.66 137.686 71.66 139.161 C 71.664 140.338 71.294 141.487 70.603 142.441 C 69.913 143.395 68.938 144.106 67.818 144.47 C 66.698 144.835 65.492 144.835 64.372 144.47 C 63.252 144.106 62.277 143.395 61.587 142.441 C 60.896 141.487 60.526 140.338 60.53 139.161"
        fill="#ffffff"/>
    <path
        id="path_38"
        d="M 89.367 81.407 C 85.12 81.407 81.379 78.469 81.207 78.329 C 81.069 78.22 80.969 78.071 80.922 77.901 C 80.874 77.732 80.882 77.553 80.943 77.388 C 81.004 77.223 81.116 77.082 81.263 76.985 C 81.409 76.889 81.582 76.84 81.758 76.848 C 81.933 76.856 82.102 76.919 82.239 77.029 C 82.281 77.06 86.486 80.35 90.574 79.642 C 91.618 79.421 92.602 78.974 93.455 78.333 C 94.308 77.692 95.011 76.872 95.513 75.93 C 95.628 75.744 95.813 75.611 96.026 75.56 C 96.239 75.509 96.464 75.546 96.651 75.66 C 96.837 75.775 96.971 75.959 97.022 76.172 C 97.073 76.385 97.038 76.61 96.924 76.797 C 96.303 77.943 95.437 78.939 94.388 79.714 C 93.338 80.488 92.132 81.022 90.853 81.278 C 90.362 81.364 89.865 81.407 89.367 81.407 Z"
        fill="#c05c5d"/>
    <path
        id="path_39"
        d="M 56.001 105.271 C 56.001 105.271 40.461 126.617 40.008 139.161 C 39.555 151.705 25.649 156.996 29.59 175.07 C 31.142 182.187 38.374 192.613 30.839 196.254 C 21.92 200.563 7.205 198.575 5.39 195.719 C -7.751 175.07 5.562 127.475 19.405 116.611 C 29.897 108.375 56.001 105.271 56.001 105.271 Z"
        fill="#f54747"/>
    <path
        id="path_40"
        d="M 129.399 105.271 C 129.399 105.271 144.941 126.617 145.399 139.161 C 145.857 151.705 159.758 156.996 155.816 175.07 C 154.264 182.187 147.03 192.613 154.567 196.254 C 163.486 200.563 178.199 198.575 180.016 195.719 C 193.157 175.07 179.844 127.475 165.999 116.611 C 155.502 108.375 129.399 105.271 129.399 105.271 Z"
        fill="#f54747"/>
</svg>
