<svg
    xmlns="http://www.w3.org/2000/svg"
    viewBox="0 0 560 578"
    id="vector">
    <path
        id="path"
        d="M 431.019 561.411 C 291.972 601.841 176.1 562.855 135.545 538.308 L 97.887 509.429 L 110.922 487.77 L 192.033 480.551 L 326.734 473.331 L 435.364 494.99 L 548.339 457.448 L 556.5 457.448 C 539.119 516.36 466.746 551.303 431.019 561.411 Z"
        fill="#fb4c47"/>
    <path
        id="path_1"
        d="M 419.5 274 C 419.5 274 529.5 279 556 394.5 C 577 543.5 478.011 490.804 454.343 483.46 C 430.681 476.116 346.307 285.402 419.5 274 Z"
        fill="#d9423d"/>
    <path
        id="path_2"
        d="M 143.572 506.307 L 479.565 506.307 C 479.565 506.307 491.329 313.122 448.523 284.854 C 405.723 256.591 205.556 262.494 161.192 286.634 C 116.827 310.781 143.572 506.307 143.572 506.307 Z"
        fill="#fb4c47"/>
    <path
        id="path_3"
        d="M 194.961 257.758 C 194.568 257.758 194.183 257.651 193.846 257.449 C 192.818 256.848 168.806 242.124 175 204.234 C 177.166 190.981 179.805 181.43 182.134 172.994 C 186.326 157.815 189.356 146.845 186.91 124.747 C 186.848 124.17 187.017 123.591 187.38 123.138 C 187.743 122.685 188.271 122.395 188.848 122.33 C 190.045 122.254 191.131 123.066 191.265 124.269 C 193.805 147.201 190.512 159.099 186.355 174.162 C 184.055 182.481 181.451 191.921 179.32 204.94 C 173.605 239.911 195.848 253.549 196.076 253.689 C 196.406 253.884 196.68 254.163 196.868 254.498 C 197.056 254.832 197.153 255.211 197.148 255.595 C 197.143 255.978 197.037 256.354 196.841 256.684 C 196.65 257.012 196.375 257.285 196.045 257.473 C 195.715 257.662 195.341 257.76 194.961 257.758 Z M 280.665 24.398 C 282.37 39.478 271.523 53.081 256.443 54.786 C 241.363 56.49 227.76 45.643 226.055 30.563 C 224.356 15.483 235.198 1.88 250.278 0.175 C 265.358 -1.523 278.961 9.318 280.665 24.398 Z"
        fill="#3e2d4a"/>
    <path
        id="path_4"
        d="M 191.259 247.547 C 191.259 247.547 201.709 262.778 235.139 263.648 C 268.562 264.512 292.33 248.878 318.835 254.196 C 345.334 259.515 379.85 242.158 385.448 230.511 C 391.053 218.869 371.88 102.164 349.106 85.549 C 326.331 68.934 220.041 68.25 201.009 94.592 C 181.976 120.934 175 236.536 191.259 247.547 Z"
        fill="#3e2d4a"/>
    <path
        id="path_5"
        d="M 365.258 126.912 C 370.869 176.607 335.133 221.444 285.439 227.054 C 235.744 232.665 190.907 196.929 185.297 147.235 C 179.686 97.54 215.422 52.703 265.116 47.093 C 314.811 41.483 359.648 77.218 365.258 126.912 Z"
        fill="#3e2d4a"/>
    <path
        id="path_6"
        d="M 323.82 209.743 C 323.82 209.743 340.161 278.592 335.519 287.221 C 330.878 295.844 293.199 295.593 283.227 295.12 C 273.25 294.641 257.965 219.691 263.774 218.809 C 269.583 217.934 320.358 194.365 323.82 209.743 Z"
        fill="#df9f85"/>
    <path
        id="path_7"
        d="M 201.667 144.755 C 201.667 144.755 221.762 252.883 295.947 246.473 C 370.139 240.069 346.932 86.951 318.144 76.407 C 289.356 65.857 178.798 85.346 201.667 144.755 Z"
        fill="#df9f85"/>
    <path
        id="path_8"
        d="M 280.625 156.626 C 280.625 156.626 299.71 187.959 296.435 190.721 C 293.159 193.482 282.528 194.679 279.311 192.653 C 276.094 190.621 274.32 153.748 280.625 156.626 Z"
        fill="#c05c5d"/>
    <path
        id="path_9"
        d="M 250.769 78.06 C 250.769 78.06 226.348 94.78 224.946 119.458 C 223.545 144.13 235.391 204.981 207.052 206.388 C 207.052 206.388 134.694 93.35 250.769 78.059 Z M 264.735 76.481 C 262.604 78.554 292.145 74.017 312.141 91.952 C 332.131 109.887 343.877 160.475 346.633 161.029 C 349.394 161.584 350.101 95.619 328.657 79.073 C 307.208 62.528 276.867 64.688 264.735 76.481 Z"
        fill="#3e2d4a"/>
    <path
        id="path_10"
        d="M 268.1 240.549 C 268.1 240.549 299.142 252.488 326.535 232.813 C 326.535 232.813 331.596 250.713 329.921 255.267 C 328.251 259.826 281.692 269.932 269.303 250.59 C 269.303 250.59 265.292 240.052 268.1 240.549 Z"
        fill="#c05c5d"/>
    <path
        id="path_11"
        d="M 340.957 166.35 C 340.957 166.35 343.882 138.082 357.613 145.911 C 371.35 153.74 364.537 183.853 352.803 188.261 C 341.062 192.674 336.374 181.389 340.957 166.35 Z M 224.411 179.511 C 224.411 179.511 215.257 152.603 203.615 163.298 C 191.974 173.994 205.326 201.83 217.75 203.512 C 230.179 205.193 232.228 193.149 224.411 179.511 Z"
        fill="#df9f85"/>
    <path
        id="path_12"
        d="M 305.568 137.219 C 305.568 137.219 316.526 127.189 326.883 134.778 C 335.985 141.451 318.465 138.696 312.959 141.305 C 307.46 143.915 299.683 145.433 305.568 137.219 Z M 255.018 146.832 C 255.018 146.832 241.981 139.704 233.737 149.541 C 226.486 158.193 242.845 151.339 248.812 152.559 C 254.778 153.785 262.689 153.406 255.018 146.832 Z"
        fill="#41294a"/>
    <path
        id="path_13"
        d="M 253.727 156.548 C 252.927 156.548 252.127 156.594 251.315 156.682 C 239.657 158.007 231.238 168.569 232.552 180.222 C 233.865 191.781 244.333 200.311 256.079 198.98 C 261.731 198.337 266.792 195.541 270.336 191.098 C 272.084 188.916 273.383 186.41 274.157 183.723 C 274.93 181.037 275.164 178.223 274.843 175.446 C 273.623 164.675 264.551 156.548 253.727 156.548 Z M 253.668 202.033 C 241.361 202.033 231.034 192.797 229.656 180.548 C 228.155 167.296 237.73 155.287 250.983 153.786 C 264.469 152.216 276.256 161.971 277.739 175.119 C 278.469 181.541 276.647 187.864 272.619 192.914 C 268.591 197.97 262.834 201.151 256.412 201.875 C 255.49 201.98 254.573 202.033 253.668 202.033 Z M 312.927 144.182 C 312.122 144.182 311.322 144.229 310.504 144.317 C 304.853 144.959 299.791 147.755 296.253 152.198 C 292.704 156.647 291.11 162.205 291.741 167.85 C 293.054 179.416 303.522 187.934 315.268 186.608 C 320.92 185.966 325.981 183.17 329.525 178.727 C 331.273 176.545 332.572 174.039 333.346 171.352 C 334.119 168.666 334.353 165.852 334.032 163.075 C 332.812 152.309 323.745 144.182 312.927 144.182 Z M 312.846 189.662 C 300.545 189.662 290.223 180.426 288.845 168.177 C 288.115 161.755 289.937 155.432 293.965 150.382 C 295.94 147.891 298.389 145.817 301.171 144.278 C 303.953 142.74 307.012 141.769 310.172 141.421 C 323.576 139.862 335.445 149.594 336.928 162.748 C 337.658 169.17 335.836 175.492 331.808 180.548 C 329.833 183.038 327.383 185.112 324.601 186.649 C 321.819 188.186 318.76 189.157 315.601 189.504 C 314.679 189.609 313.762 189.662 312.846 189.662 Z"
        fill="#fffcf6"/>
    <path
        id="path_14"
        d="M 231.078 176.941 C 230.967 176.941 230.862 176.929 230.751 176.9 L 221.48 174.769 C 221.231 174.712 221.001 174.59 220.814 174.416 C 220.627 174.242 220.489 174.022 220.414 173.777 C 220.339 173.533 220.33 173.273 220.388 173.024 C 220.569 172.236 221.369 171.728 222.134 171.932 L 231.405 174.063 C 231.654 174.12 231.884 174.242 232.071 174.416 C 232.258 174.591 232.396 174.811 232.471 175.056 C 232.546 175.3 232.555 175.56 232.497 175.809 C 232.424 176.131 232.244 176.418 231.986 176.624 C 231.728 176.83 231.408 176.941 231.078 176.941 Z M 333.607 157.557 C 333.327 157.556 333.053 157.476 332.817 157.325 C 332.581 157.174 332.394 156.958 332.276 156.704 C 332.118 156.351 332.105 155.949 332.24 155.586 C 332.376 155.224 332.649 154.929 333 154.766 L 344.635 149.453 C 345.341 149.115 346.229 149.436 346.567 150.177 C 346.9 150.907 346.579 151.777 345.844 152.11 L 334.214 157.428 C 334.023 157.513 333.816 157.557 333.607 157.557 Z"
        fill="#fffcf6"/>
    <path
        id="path_15"
        d="M 258.821 71.007 C 258.821 71.007 271.035 129.418 288.076 132.313 C 305.124 135.209 344.829 127.713 345.781 120.976 C 346.732 114.244 306.017 67.358 281.164 62.606 C 237.576 54.275 212.017 126.954 219.186 142.454 C 226.361 157.96 259.779 138.397 267.047 135.168 C 274.322 131.934 259.066 82.882 258.821 71.007 Z"
        fill="#3e2d4a"/>
    <path
        id="path_16"
        d="M 276.108 175.476 C 275.779 175.477 275.46 175.366 275.202 175.161 C 274.944 174.957 274.764 174.67 274.69 174.35 C 274.631 174.101 274.639 173.841 274.713 173.596 C 274.787 173.351 274.924 173.13 275.11 172.955 C 275.297 172.78 275.526 172.657 275.775 172.598 L 290.412 169.2 C 291.229 168.99 291.988 169.51 292.163 170.286 C 292.222 170.536 292.213 170.796 292.139 171.042 C 292.064 171.287 291.926 171.508 291.739 171.683 C 291.551 171.858 291.321 171.981 291.071 172.038 L 276.441 175.435 C 276.324 175.465 276.219 175.476 276.108 175.476 Z"
        fill="#fffcf6"/>
    <path
        id="path_17"
        d="M 240.167 57.258 C 239.933 57.258 239.7 57.223 239.466 57.142 C 230.902 54.24 225.303 49.249 222.822 42.289 C 217.381 27.011 229.121 7.984 229.629 7.179 C 229.831 6.852 230.117 6.584 230.457 6.403 C 230.797 6.222 231.179 6.135 231.564 6.15 C 231.948 6.165 232.322 6.282 232.647 6.489 C 233.138 6.797 233.487 7.287 233.617 7.852 C 233.747 8.416 233.648 9.01 233.342 9.502 C 233.231 9.683 222.215 27.56 226.949 40.83 C 228.958 46.452 233.646 50.55 240.868 52.997 C 241.358 53.165 241.773 53.501 242.038 53.945 C 242.304 54.389 242.404 54.914 242.32 55.424 C 242.236 55.935 241.973 56.4 241.579 56.736 C 241.185 57.072 240.685 57.257 240.167 57.259 Z M 272.231 57.367 C 271.667 57.367 271.124 57.148 270.717 56.757 C 270.31 56.366 270.069 55.833 270.046 55.269 C 270.022 54.705 270.218 54.153 270.591 53.73 C 270.731 53.572 284.532 37.745 282.045 23.879 C 280.983 17.994 277.036 13.189 270.317 9.587 C 269.978 9.407 269.692 9.14 269.489 8.814 C 269.286 8.488 269.172 8.114 269.159 7.73 C 269.147 7.346 269.236 6.966 269.417 6.627 C 269.99 5.547 271.332 5.173 272.377 5.722 C 280.352 9.996 285.046 15.846 286.354 23.114 C 289.215 39.07 274.503 55.919 273.872 56.631 C 273.666 56.863 273.413 57.048 273.13 57.175 C 272.848 57.302 272.541 57.367 272.231 57.367 Z M 377.408 228.326 C 376.846 228.328 376.305 228.11 375.902 227.719 C 375.624 227.454 375.42 227.121 375.311 226.752 C 375.203 226.384 375.193 225.993 375.283 225.62 C 375.374 225.246 375.561 224.903 375.826 224.625 C 376.48 223.93 391.887 207.309 383.755 184.447 C 380.573 175.497 375.733 165.794 370.613 155.513 C 361.686 137.584 352.45 119.048 349.508 100.249 C 349.446 99.87 349.486 99.48 349.624 99.121 C 349.761 98.762 349.992 98.446 350.291 98.205 C 350.591 97.964 350.949 97.807 351.329 97.749 C 352.526 97.487 353.647 98.375 353.828 99.571 C 356.665 117.705 365.75 135.932 374.536 153.557 C 379.715 163.961 384.607 173.78 387.882 182.976 C 396.937 208.436 379.726 226.873 378.991 227.649 C 378.787 227.864 378.541 228.034 378.269 228.151 C 377.997 228.267 377.704 228.327 377.408 228.326 Z"
        fill="#3e2d4a"/>
    <path
        id="path_18"
        d="M 369.718 128.502 C 369.149 128.501 368.602 128.279 368.193 127.883 C 367.785 127.486 367.546 126.946 367.529 126.377 C 366.858 102.125 359.373 83.344 345.28 70.535 C 322.587 49.92 290.15 51.847 289.841 51.882 C 288.498 52.039 287.593 51.047 287.511 49.844 C 287.485 49.461 287.56 49.077 287.729 48.732 C 287.899 48.387 288.156 48.092 288.476 47.878 C 288.795 47.665 289.165 47.539 289.549 47.514 C 290.944 47.416 324.157 45.431 348.228 67.3 C 363.238 80.933 371.201 100.765 371.908 126.248 C 371.925 126.828 371.71 127.392 371.312 127.815 C 370.914 128.237 370.363 128.485 369.783 128.502 L 369.718 128.502 Z"
        fill="#3e2d4a"/>
    <path
        id="path_19"
        d="M 291.525 226.496 C 288.979 226.496 287.17 226.053 287.018 226.012 C 286.646 225.919 286.305 225.729 286.029 225.463 C 285.754 225.196 285.553 224.861 285.448 224.492 C 285.343 224.123 285.337 223.733 285.43 223.361 C 285.722 222.199 286.901 221.493 288.08 221.762 C 288.139 221.785 294.409 223.274 299.167 219.94 C 300.171 219.251 301.531 219.491 302.215 220.471 C 302.548 220.946 302.68 221.534 302.58 222.105 C 302.48 222.677 302.158 223.185 301.683 223.519 C 298.262 225.918 294.421 226.496 291.525 226.496 Z M 218.982 196.387 C 218.561 196.387 218.149 196.266 217.796 196.038 C 217.442 195.81 217.162 195.485 216.988 195.102 C 216.814 194.718 216.755 194.293 216.816 193.877 C 218.801 180.35 208.082 173.181 207.971 173.117 C 207.487 172.797 207.148 172.298 207.029 171.73 C 206.91 171.162 207.02 170.569 207.335 170.081 C 207.545 169.759 207.836 169.498 208.179 169.324 C 208.521 169.15 208.904 169.069 209.288 169.091 C 209.672 169.112 210.043 169.234 210.365 169.444 C 210.902 169.795 223.536 178.242 221.148 194.519 C 221.072 195.039 220.811 195.513 220.413 195.856 C 220.015 196.199 219.507 196.388 218.982 196.387 Z M 348.299 183.337 C 347.742 183.337 347.205 183.124 346.8 182.742 C 346.394 182.361 346.149 181.838 346.115 181.282 C 345.088 164.842 351.849 155.075 352.135 154.666 C 352.47 154.193 352.98 153.872 353.551 153.773 C 354.122 153.675 354.71 153.807 355.184 154.141 C 355.658 154.474 355.981 154.983 356.081 155.554 C 356.181 156.125 356.051 156.713 355.719 157.188 C 355.655 157.276 349.566 166.196 350.482 181.014 C 350.506 181.397 350.429 181.78 350.258 182.124 C 350.087 182.468 349.828 182.761 349.507 182.973 C 349.187 183.185 348.816 183.308 348.433 183.331 C 348.392 183.337 348.346 183.337 348.299 183.337 Z"
        fill="#c05c5d"/>
    <path
        id="path_20"
        d="M 227.747 291.15 C 227.747 291.15 277.459 350.582 315.799 334.679 C 354.132 318.776 390.049 275.667 370.777 269.946 C 351.505 264.224 197.611 267.237 227.747 291.15 Z"
        fill="#df9f85"/>
    <path
        id="path_21"
        d="M 265.17 177.849 C 265.384 179.235 265.152 180.653 264.509 181.899 C 263.866 183.145 262.843 184.156 261.59 184.784 C 260.336 185.412 258.915 185.627 257.532 185.397 C 256.149 185.166 254.874 184.503 253.891 183.503 C 252.909 182.502 252.269 181.215 252.064 179.828 C 251.802 178.091 252.241 176.319 253.284 174.905 C 254.327 173.491 255.89 172.548 257.627 172.285 C 259.364 172.023 261.136 172.463 262.55 173.506 C 263.964 174.548 264.907 176.112 265.17 177.849 Z M 327.334 165.895 C 327.553 167.283 327.324 168.705 326.682 169.955 C 326.04 171.205 325.017 172.218 323.762 172.849 C 322.506 173.479 321.082 173.695 319.696 173.463 C 318.31 173.232 317.033 172.565 316.051 171.561 C 315.068 170.557 314.43 169.266 314.229 167.875 C 313.979 166.143 314.424 164.381 315.467 162.976 C 316.51 161.572 318.068 160.635 319.798 160.374 C 321.528 160.113 323.293 160.547 324.704 161.581 C 326.116 162.615 327.062 164.167 327.334 165.895 Z"
        fill="#41294a"/>
    <path
        id="path_22"
        d="M 275.988 218.532 C 275.486 218.531 274.998 218.358 274.609 218.041 C 274.219 217.724 273.95 217.282 273.847 216.79 C 273.744 216.298 273.814 215.786 274.044 215.339 C 274.359 214.731 281.908 200.311 294.068 198.951 C 300.975 198.18 307.712 201.712 314.175 209.419 C 314.547 209.864 314.729 210.44 314.678 211.018 C 314.628 211.597 314.351 212.132 313.907 212.507 C 312.984 213.301 311.606 213.161 310.824 212.238 C 305.354 205.717 299.912 202.687 294.565 203.306 C 284.739 204.392 278.002 217.213 277.932 217.347 C 277.749 217.704 277.47 218.004 277.127 218.213 C 276.784 218.423 276.39 218.533 275.988 218.532 Z"
        fill="#c05c5d"/>
    <path
        id="path_23"
        d="M 399.879 442.564 M 294.439 442.564 C 294.439 414.61 305.555 387.773 325.322 368.007 C 345.088 348.24 371.925 337.124 399.879 337.124 C 427.833 337.124 454.67 348.24 474.436 368.007 C 494.203 387.773 505.319 414.61 505.319 442.564 C 505.319 470.518 494.203 497.355 474.436 517.121 C 454.67 536.888 427.833 548.004 399.879 548.004 C 371.925 548.004 345.088 536.888 325.322 517.121 C 305.555 497.355 294.439 470.518 294.439 442.564"
        fill="#ffffff"/>
    <path
        id="path_24"
        d="M 345.808 395.505 C 345.808 395.505 389.878 454.347 400.902 459.212 C 411.929 464.081 425.753 462.985 426.962 468.629 C 428.171 474.277 403.818 464.725 407.703 473.436 C 411.588 482.151 426.728 492.098 426.799 500.871 C 426.873 509.648 402.708 482.034 402.708 482.034 C 402.708 482.034 425.476 507.298 417.937 507.895 C 410.395 508.493 390.893 483.793 390.893 483.793 C 390.893 483.793 412.708 516.195 405.476 513.235 C 398.248 510.276 331.207 432.751 320.868 424.547 C 310.53 416.346 345.808 395.505 345.808 395.505 Z"
        fill="#e27b5a"/>
    <path
        id="path_25"
        d="M 474.005 409.788 C 474.005 409.788 423.74 463.42 412.246 467.044 C 400.751 470.666 387.133 468.057 385.309 473.533 C 383.488 479.011 408.742 472.199 403.922 480.434 C 399.105 488.665 382.965 496.884 381.929 505.599 C 380.895 514.311 407.945 489.527 407.945 489.527 C 407.945 489.527 382.538 512.13 389.966 513.553 C 397.398 514.979 419.496 492.576 419.496 492.576 C 419.496 492.576 394.251 522.382 401.763 520.236 C 409.274 518.089 484.426 448.417 495.601 441.402 C 506.779 434.387 474.005 409.788 474.005 409.788 Z"
        fill="#f8b38a"/>
    <path
        id="path_26"
        d="M 431.214 447.027 C 431.214 447.027 446.674 476.301 460.886 479.416 C 475.096 482.531 497.649 459.946 504.347 446.182 C 511.048 432.421 496.078 391.395 482.639 377.44 C 472.543 376.207 424.047 420.933 431.214 447.027 Z"
        fill="#f65551"/>
    <path
        id="path_27"
        d="M 332.232 361.934 C 332.232 361.934 386.135 417.215 383.726 430.226 C 381.32 443.24 361.904 458.83 346.245 463.935 C 330.587 469.038 295.019 448.251 295.019 433.261 C 296.569 404.833 312.591 377.957 332.232 361.934 Z"
        fill="#128e5a"/>
    <path
        id="path_28"
        d="M 151.907 425.958 C 151.907 425.958 270.768 490.914 292.988 490.648 C 315.206 490.376 337.565 477.983 343.905 486.516 C 350.242 495.056 302.087 497.654 315.26 509.293 C 328.426 520.929 361.422 526.033 368.243 540.687 C 375.057 555.339 313.433 527.52 313.433 527.52 C 313.433 527.52 370.927 552.467 358.73 559.228 C 346.529 565.996 294.949 539.496 294.949 539.496 C 294.949 539.496 356.293 577.142 341.901 577.704 C 327.508 578.267 155.833 499.549 132.226 493.698 C 108.614 487.848 151.907 425.958 151.907 425.958 Z"
        fill="#df9f85"/>
    <path
        id="path_29"
        d="M 243.609 422.254 C 243.609 422.254 245.034 477.413 232.365 498.46 C 202.244 548.5 120.787 542.399 96.501 506.5 C 72.214 470.601 125.322 289.36 161.192 286.633 C 197.062 283.907 243.609 370 243.609 422.254 Z"
        fill="#d9423d"/>
    <path
        id="path_30"
        d="M 266.835 5.67 C 266.162 5.67 265.432 5.748 264.641 5.904 C 262.712 6.291 261.462 7.228 260.712 8.855 C 257.367 16.095 264.42 33.34 269.46 43.529 C 272.574 32.227 276.306 13.334 271.032 7.381 C 270.017 6.237 268.635 5.67 266.835 5.67 Z M 270.047 52.032 C 269.631 52.032 269.223 51.921 268.865 51.711 C 268.507 51.5 268.212 51.197 268.01 50.834 C 266.227 47.638 250.768 19.257 256.473 6.899 C 257.845 3.927 260.355 1.999 263.727 1.326 C 269.473 0.182 272.774 2.304 274.527 4.284 C 283.689 14.628 273.464 46.796 272.268 50.429 C 272.114 50.896 271.816 51.302 271.417 51.59 C 271.018 51.878 270.539 52.032 270.047 52.032 Z"
        fill="#ffd310"/>
    <path
        id="path_31"
        d="M 298.307 17.153 C 298.086 17.153 297.862 17.167 297.638 17.201 C 289.749 18.251 280.216 34.982 275.177 45.568 C 285.653 41.156 302.27 32.731 304.478 25.069 C 304.973 23.344 304.641 21.819 303.435 20.264 C 301.812 18.175 300.131 17.154 298.307 17.154 Z M 270.697 52.18 C 270.183 52.179 269.683 52.009 269.275 51.696 C 268.867 51.382 268.574 50.943 268.442 50.446 C 268.309 49.949 268.344 49.422 268.541 48.947 C 270.015 45.418 283.32 14.399 297.02 12.572 C 299.645 12.222 303.527 12.772 307.12 17.398 C 309.232 20.114 309.871 23.215 308.964 26.36 C 305.194 39.438 274.932 50.788 271.495 52.04 C 271.234 52.136 270.966 52.18 270.697 52.18 Z"
        fill="#ffd310"/>
    <path
        id="path_32"
        d="M 226.867 43.934 C 238.207 51.224 264.128 56.894 284.378 43.934"
        fill="#00000000"
        stroke="#ffd310"
        stroke-width="4.87"/>
</svg>
