<svg
    xmlns="http://www.w3.org/2000/svg"
    viewBox="0 0 190 207"
    id="vector">
    <path
        id="path"
        d="M 27.179 195.14 L 156.084 195.14 C 156.084 195.14 160.597 121.021 144.175 110.178 C 127.753 99.335 54.509 103.049 38.512 113.986 C -2.045 141.72 27.179 195.14 27.179 195.14 Z"
        fill="#f54747"/>
    <path
        id="path_1"
        d="M 48.638 94.565 C 48.445 94.565 48.258 94.498 48.109 94.375 C 47.753 94.086 39.488 87.127 44.009 73.108 C 45.285 69.211 46.788 65.391 48.509 61.669 C 50.971 56.15 52.749 52.163 53.085 43.636 C 53.097 43.414 53.195 43.206 53.358 43.056 C 53.522 42.905 53.737 42.824 53.959 42.83 C 54.181 42.839 54.391 42.937 54.542 43.1 C 54.693 43.264 54.773 43.481 54.765 43.703 C 54.416 52.55 52.487 56.878 50.043 62.354 C 48.349 66.022 46.869 69.784 45.61 73.623 C 41.457 86.511 48.862 92.814 49.178 93.076 C 49.311 93.186 49.407 93.335 49.453 93.502 C 49.498 93.669 49.491 93.846 49.433 94.009 C 49.374 94.171 49.267 94.312 49.126 94.412 C 48.985 94.512 48.816 94.565 48.643 94.566 Z"
        fill="#3e2d4a"/>
    <path
        id="path_2"
        d="M 83.862 10.542 M 73.32 10.542 C 73.313 8.312 74.014 6.135 75.322 4.328 C 76.629 2.521 78.477 1.175 80.598 0.485 C 82.719 -0.206 85.005 -0.206 87.126 0.485 C 89.247 1.175 91.095 2.521 92.402 4.328 C 93.71 6.135 94.411 8.312 94.404 10.542 C 94.411 12.772 93.71 14.949 92.402 16.756 C 91.095 18.563 89.247 19.909 87.126 20.599 C 85.005 21.29 82.719 21.29 80.598 20.599 C 78.477 19.909 76.629 18.563 75.322 16.756 C 74.014 14.949 73.313 12.772 73.32 10.542"
        fill="#3e2d4a"/>
    <path
        id="path_3"
        d="M 47.695 90.467 C 47.695 90.467 50.788 96.844 63.417 99.088 C 76.046 101.332 85.961 96.763 95.709 100.298 C 105.457 103.833 119.545 99.227 122.339 95.131 C 125.133 91.035 124.545 45.664 116.858 38.057 C 109.171 30.45 68.889 24.098 60.158 33.002 C 51.427 41.906 42.16 85.358 47.695 90.467 Z"
        fill="#3e2d4a"/>
    <path
        id="path_4"
        d="M 85.898 53.372 M 51.157 53.372 C 51.157 44.162 54.82 35.319 61.332 28.806 C 67.845 22.294 76.688 18.631 85.898 18.631 C 95.108 18.631 103.951 22.294 110.464 28.806 C 116.976 35.319 120.639 44.162 120.639 53.372 C 120.639 62.582 116.976 71.425 110.464 77.938 C 103.951 84.45 95.108 88.113 85.898 88.113 C 76.688 88.113 67.845 84.45 61.332 77.938 C 54.82 71.425 51.157 62.582 51.157 53.372"
        fill="#3e2d4a"/>
    <path
        id="path_5"
        d="M 100.148 83.719 C 100.148 83.719 102.403 110.774 100.148 113.78 C 97.893 116.786 83.613 114.533 79.857 113.78 C 76.101 113.027 74.596 83.719 76.851 83.719 C 79.106 83.719 99.716 77.689 100.148 83.719 Z"
        fill="#e69d7f"/>
    <path
        id="path_6"
        d="M 57.533 52.069 C 57.533 52.069 58.962 94.239 87.471 96.057 C 115.98 97.875 115.953 38.464 105.636 32.813 C 95.319 27.162 52.262 28.222 57.533 52.069 Z"
        fill="#e69d7f"/>
    <path
        id="path_7"
        d="M 86.806 61.096 C 86.806 61.096 92.251 74.076 90.851 74.936 C 89.451 75.796 85.351 75.642 84.243 74.687 C 83.135 73.732 84.579 59.645 86.806 61.096 Z"
        fill="#c05c5d"/>
    <path
        id="path_8"
        d="M 79.981 29.581 C 79.981 29.581 69.758 34.524 67.814 43.804 C 65.87 53.084 66.876 76.849 56.044 75.758 C 56.043 75.758 35.072 28.728 79.981 29.581 Z"
        fill="#3e2d4a"/>
    <path
        id="path_9"
        d="M 85.369 29.783 C 84.442 30.446 95.91 30.419 102.469 38.368 C 109.028 46.317 110.584 66.178 111.596 66.548 C 112.608 66.918 116.66 41.934 109.471 34.428 C 102.282 26.922 90.646 26.004 85.369 29.783 Z"
        fill="#3e2d4a"/>
    <path
        id="path_10"
        d="M 77.245 92.214 C 77.245 92.214 88.339 98.521 99.854 92.626 C 99.854 92.626 100.754 99.706 99.854 101.339 C 98.954 102.972 80.717 104.139 77.126 96.091 C 77.127 96.093 76.208 91.865 77.245 92.214 Z"
        fill="#c05c5d"/>
    <path
        id="path_11"
        d="M 109.14 68.242 C 109.14 68.242 111.868 57.686 116.63 61.442 C 121.392 65.198 117.082 76.232 112.377 77.233 C 107.672 78.234 106.54 73.684 109.14 68.242 Z"
        fill="#e69d7f"/>
    <path
        id="path_12"
        d="M 64.17 66.557 C 64.17 66.557 62.239 55.826 57.208 59.215 C 52.177 62.604 55.651 73.931 60.268 75.281 C 64.885 76.631 66.355 72.176 64.17 66.557 Z"
        fill="#e69d7f"/>
    <path
        id="path_13"
        d="M 97.38 55.16 C 97.38 55.16 102.113 51.984 105.605 55.46 C 108.676 58.513 102.189 56.46 99.952 57.138 C 97.715 57.816 94.678 57.943 97.38 55.16 Z"
        fill="#3e2d4a"/>
    <path
        id="path_14"
        d="M 77.653 55.913 C 77.653 55.913 73.115 52.464 69.424 55.723 C 66.179 58.588 72.777 56.923 74.97 57.732 C 77.163 58.541 80.187 58.847 77.653 55.913 Z"
        fill="#3e2d4a"/>
    <path
        id="path_15"
        d="M 75.382 76.88 L 75.026 76.873 C 72.6 76.779 70.304 75.736 68.637 73.971 C 66.97 72.206 66.06 69.855 66.104 67.427 C 66.149 64.999 67.144 62.683 68.875 60.98 C 70.606 59.277 72.938 58.319 75.366 58.314 L 75.724 58.321 C 78.151 58.415 80.446 59.458 82.113 61.224 C 83.781 62.989 84.69 65.341 84.645 67.769 C 84.601 70.197 83.605 72.513 81.873 74.215 C 80.142 75.918 77.809 76.876 75.381 76.88 Z M 75.366 59.434 C 73.23 59.437 71.178 60.279 69.655 61.777 C 68.132 63.274 67.256 65.311 67.217 67.447 C 67.178 69.583 67.978 71.651 69.445 73.203 C 70.912 74.756 72.932 75.672 75.066 75.754 L 75.377 75.761 C 77.513 75.758 79.565 74.916 81.088 73.418 C 82.611 71.921 83.487 69.884 83.526 67.748 C 83.565 65.612 82.765 63.544 81.298 61.992 C 79.831 60.439 77.811 59.523 75.677 59.441 Z"
        fill="#fffcf6"/>
    <path
        id="path_16"
        d="M 98.547 75.579 L 98.191 75.572 C 95.765 75.478 93.469 74.435 91.802 72.67 C 90.135 70.905 89.225 68.554 89.269 66.126 C 89.314 63.698 90.309 61.382 92.04 59.679 C 93.771 57.976 96.103 57.018 98.531 57.013 L 98.887 57.02 C 101.313 57.114 103.609 58.157 105.276 59.922 C 106.943 61.688 107.853 64.039 107.808 66.467 C 107.764 68.894 106.768 71.21 105.037 72.913 C 103.306 74.616 100.974 75.574 98.546 75.579 Z M 98.531 58.133 C 96.395 58.136 94.343 58.978 92.82 60.476 C 91.297 61.973 90.421 64.01 90.382 66.146 C 90.343 68.282 91.143 70.35 92.61 71.902 C 94.077 73.455 96.097 74.371 98.231 74.453 L 98.545 74.46 C 100.681 74.457 102.733 73.615 104.256 72.117 C 105.779 70.62 106.655 68.583 106.694 66.447 C 106.733 64.311 105.933 62.243 104.466 60.691 C 102.999 59.138 100.979 58.222 98.845 58.14 Z"
        fill="#fffcf6"/>
    <path
        id="path_17"
        d="M 66.931 65.97 C 66.861 65.969 66.791 65.957 66.725 65.932 L 63.325 64.59 C 63.187 64.535 63.077 64.428 63.018 64.292 C 62.96 64.155 62.957 64.001 63.012 63.864 C 63.066 63.726 63.173 63.615 63.309 63.556 C 63.445 63.497 63.599 63.494 63.737 63.548 L 67.137 64.89 C 67.258 64.938 67.358 65.027 67.42 65.141 C 67.483 65.255 67.504 65.387 67.479 65.515 C 67.455 65.643 67.387 65.758 67.287 65.841 C 67.187 65.924 67.061 65.97 66.931 65.97 Z"
        fill="#fffcf6"/>
    <path
        id="path_18"
        d="M 106.935 64.491 C 106.798 64.494 106.665 64.446 106.56 64.357 C 106.456 64.269 106.388 64.144 106.369 64.009 C 106.351 63.873 106.383 63.735 106.459 63.621 C 106.535 63.507 106.65 63.425 106.783 63.391 L 111.5 62.04 C 111.614 62.006 111.736 62.009 111.849 62.049 C 111.961 62.089 112.058 62.164 112.125 62.263 C 112.191 62.362 112.225 62.479 112.22 62.598 C 112.216 62.718 112.173 62.832 112.099 62.925 C 112.024 63.019 111.922 63.086 111.807 63.117 L 107.09 64.465 C 107.04 64.481 106.988 64.49 106.935 64.491 Z"
        fill="#fffcf6"/>
    <path
        id="path_19"
        d="M 83.439 27.366 C 83.439 27.366 84.727 50.224 91.025 52.3 C 97.323 54.376 112.819 53.805 113.565 51.305 C 114.311 48.805 101.553 28.685 92.396 25.459 C 76.341 19.801 62.478 45.909 64.311 52.201 C 66.144 58.493 79.941 52.985 82.886 52.176 C 85.831 51.367 82.852 31.886 83.439 27.366 Z"
        fill="#3e2d4a"/>
    <path
        id="path_20"
        d="M 84.098 67.992 C 83.954 67.991 83.815 67.935 83.711 67.835 C 83.608 67.735 83.546 67.599 83.541 67.455 C 83.535 67.31 83.585 67.17 83.68 67.061 C 83.776 66.953 83.909 66.886 84.053 66.874 L 89.8 66.426 C 89.899 66.411 90.001 66.425 90.092 66.467 C 90.183 66.508 90.261 66.574 90.316 66.659 C 90.37 66.743 90.4 66.841 90.4 66.941 C 90.408 67.039 90.39 67.137 90.348 67.225 C 90.305 67.314 90.241 67.39 90.16 67.445 C 90.079 67.5 89.985 67.534 89.887 67.541 L 84.139 67.989 Z"
        fill="#fffcf6"/>
    <path
        id="path_21"
        d="M 77.277 21.093 C 77.143 21.093 77.011 21.06 76.892 20.999 C 73.81 19.409 71.971 17.191 71.429 14.409 C 70.24 8.303 75.785 1.758 76.023 1.483 C 76.168 1.315 76.374 1.211 76.596 1.195 C 76.817 1.178 77.036 1.25 77.205 1.395 C 77.373 1.539 77.478 1.745 77.495 1.966 C 77.512 2.188 77.441 2.407 77.297 2.576 C 77.243 2.639 72.042 8.787 73.079 14.091 C 73.518 16.342 75.061 18.163 77.662 19.507 C 77.829 19.593 77.962 19.734 78.04 19.905 C 78.118 20.076 78.137 20.268 78.092 20.451 C 78.048 20.634 77.943 20.797 77.796 20.913 C 77.648 21.029 77.465 21.093 77.277 21.093 Z"
        fill="#3e2d4a"/>
    <path
        id="path_22"
        d="M 89.435 22.969 C 89.263 22.968 89.095 22.915 88.955 22.816 C 88.814 22.717 88.707 22.577 88.649 22.415 C 88.59 22.253 88.583 22.077 88.627 21.911 C 88.672 21.745 88.766 21.597 88.898 21.486 C 88.958 21.432 95.098 16.22 94.95 10.818 C 94.885 8.527 93.662 6.477 91.319 4.726 C 91.176 4.62 91.071 4.471 91.018 4.302 C 90.965 4.132 90.967 3.95 91.024 3.781 C 91.081 3.613 91.19 3.467 91.336 3.365 C 91.481 3.262 91.655 3.209 91.833 3.211 C 92.011 3.214 92.183 3.273 92.325 3.38 C 95.102 5.456 96.552 7.945 96.625 10.78 C 96.795 17 90.248 22.544 89.968 22.78 C 89.818 22.903 89.629 22.97 89.435 22.969 Z"
        fill="#3e2d4a"/>
    <path
        id="path_23"
        d="M 119.54 93.851 C 119.365 93.851 119.195 93.797 119.053 93.695 C 118.911 93.594 118.803 93.451 118.747 93.285 C 118.69 93.12 118.686 92.941 118.735 92.774 C 118.785 92.606 118.885 92.459 119.023 92.351 C 121.141 90.579 122.749 88.275 123.683 85.676 C 124.616 83.077 124.841 80.276 124.334 77.561 C 123.45 73.589 122.339 69.671 121.006 65.827 C 118.647 58.516 116.206 50.957 116.166 43.659 C 116.165 43.436 116.252 43.222 116.409 43.064 C 116.565 42.906 116.778 42.816 117.001 42.815 L 117.001 42.815 C 117.223 42.815 117.436 42.903 117.593 43.06 C 117.751 43.216 117.84 43.429 117.841 43.651 C 117.881 50.689 120.28 58.123 122.598 65.31 C 123.957 69.217 125.088 73.2 125.986 77.238 C 127.966 87.411 120.38 93.425 120.057 93.676 C 119.909 93.791 119.727 93.852 119.54 93.851 Z"
        fill="#3e2d4a"/>
    <path
        id="path_24"
        d="M 122.341 55.542 C 122.182 55.541 122.027 55.496 121.893 55.41 C 121.759 55.325 121.651 55.204 121.583 55.06 C 121.515 54.917 121.489 54.757 121.508 54.599 C 122.641 45.371 120.883 37.82 116.278 32.156 C 108.862 23.035 96.428 21.9 96.303 21.891 C 96.087 21.865 95.89 21.756 95.753 21.587 C 95.615 21.419 95.549 21.203 95.567 20.987 C 95.585 20.77 95.686 20.569 95.849 20.425 C 96.012 20.281 96.225 20.206 96.442 20.216 C 96.98 20.261 109.693 21.41 117.571 31.086 C 122.483 37.116 124.371 45.098 123.171 54.806 C 123.146 55.009 123.048 55.195 122.895 55.331 C 122.742 55.466 122.545 55.541 122.341 55.542 Z"
        fill="#3e2d4a"/>
    <path
        id="path_25"
        d="M 88.125 88.313 C 87.144 88.312 86.172 88.131 85.256 87.78 C 85.12 87.723 85.001 87.632 84.911 87.514 C 84.821 87.397 84.765 87.258 84.746 87.111 C 84.728 86.965 84.748 86.816 84.806 86.68 C 84.894 86.476 85.058 86.314 85.264 86.229 C 85.469 86.144 85.7 86.143 85.906 86.225 C 87.296 86.76 88.84 86.739 90.215 86.167 C 90.374 86.078 90.558 86.043 90.739 86.068 C 90.92 86.093 91.088 86.177 91.217 86.306 C 91.346 86.435 91.43 86.602 91.455 86.783 C 91.48 86.964 91.446 87.148 91.357 87.308 C 91.268 87.467 91.13 87.593 90.963 87.667 C 90.08 88.1 89.108 88.322 88.125 88.313 Z"
        fill="#c05c5d"/>
    <path
        id="path_26"
        d="M 61.269 72.656 C 61.186 72.657 61.103 72.645 61.023 72.62 C 60.81 72.555 60.632 72.408 60.527 72.211 C 60.423 72.015 60.4 71.785 60.465 71.572 C 60.9 70.11 60.928 68.556 60.547 67.079 C 60.165 65.602 59.388 64.256 58.299 63.188 C 58.138 63.038 58.042 62.831 58.032 62.611 C 58.022 62.391 58.098 62.176 58.244 62.012 C 58.391 61.848 58.596 61.747 58.815 61.732 C 59.035 61.717 59.252 61.788 59.419 61.931 C 60.754 63.209 61.709 64.833 62.177 66.622 C 62.645 68.41 62.609 70.293 62.071 72.062 C 62.019 72.234 61.913 72.385 61.769 72.492 C 61.624 72.599 61.449 72.657 61.269 72.656 Z"
        fill="#c05c5d"/>
    <path
        id="path_27"
        d="M 111.075 75.118 C 111.05 75.118 111.026 75.118 111.001 75.118 C 110.854 75.105 110.713 75.054 110.592 74.969 C 110.471 74.884 110.374 74.769 110.312 74.635 C 110.25 74.501 110.224 74.353 110.237 74.206 C 110.431 70.631 111.767 67.211 114.047 64.451 C 114.201 64.291 114.413 64.198 114.635 64.194 C 114.857 64.189 115.073 64.273 115.233 64.427 C 115.394 64.581 115.487 64.792 115.492 65.014 C 115.497 65.236 115.414 65.452 115.261 65.613 C 113.265 68.108 112.094 71.163 111.912 74.353 C 111.893 74.562 111.796 74.756 111.641 74.897 C 111.487 75.039 111.285 75.117 111.075 75.118 Z"
        fill="#c05c5d"/>
    <path
        id="path_28"
        d="M 62.131 112.593 C 62.131 112.593 81.203 135.393 95.912 129.293 C 110.621 123.193 124.399 106.655 117.005 104.455 C 109.611 102.255 50.569 103.421 62.131 112.593 Z"
        fill="#e69d7f"/>
    <path
        id="path_29"
        d="M 113.314 81.873 C 113.314 81.873 119.066 123.573 113.688 128.287 C 108.31 133.001 101.508 128.874 92.378 131.996 C 83.248 135.118 82.935 122.441 83.562 115.939 C 84.189 109.437 87.163 68.12 113.314 81.873 Z"
        fill="#ffffff"/>
    <path
        id="path_30"
        d="M 11.284 146.414 L -0.003 179.738 L 82.249 207.597 C 82.249 207.597 94.83 175.661 93.249 175.126 C 91.668 174.591 11.284 146.414 11.284 146.414 Z"
        fill="#3e2d4a"/>
    <path
        id="path_31"
        d="M 27.543 186.725 C 27.543 186.725 41.605 177.009 41.114 179.479 C 40.623 181.949 35.183 186.725 35.183 186.725 C 35.183 186.725 45.063 179.078 45.708 182.902 C 46.353 186.726 42.886 190.354 42.886 190.354 C 42.886 190.354 49.834 184.815 50.958 187.68 C 52.082 190.545 43.109 203.216 35.183 202.848 C 27.257 202.48 23.661 189.314 27.543 186.725 Z"
        fill="#df9f85"/>
    <path
        id="path_32"
        d="M 32.744 167.991 L 63.537 180.534 C 63.537 180.534 68.899 164.234 67.889 162.353 C 66.879 160.472 55.779 159.766 52.737 156.773 C 49.695 153.78 50.793 150.127 45.708 150.759 C 40.623 151.391 32.744 167.991 32.744 167.991 Z"
        fill="#ffffff"/>
    <path
        id="path_33"
        d="M 88.872 85.573 C 88.774 85.573 88.677 85.557 88.585 85.524 C 86.155 84.644 84.95 83.56 84.905 82.211 C 84.833 80.059 87.915 78.594 88.531 78.32 C 88.694 78.243 88.878 78.22 89.055 78.255 C 89.232 78.29 89.393 78.381 89.514 78.515 C 89.635 78.649 89.71 78.818 89.727 78.998 C 89.745 79.177 89.704 79.358 89.611 79.512 C 89.518 79.667 89.377 79.788 89.21 79.856 C 88.092 80.356 86.56 81.426 86.583 82.156 C 86.592 82.356 86.798 83.09 89.159 83.946 C 89.344 84.014 89.498 84.145 89.596 84.316 C 89.694 84.486 89.729 84.686 89.695 84.88 C 89.661 85.074 89.56 85.249 89.41 85.376 C 89.259 85.503 89.069 85.573 88.872 85.574 Z"
        fill="#c05c5d"/>
    <path
        id="path_34"
        d="M 78.753 69.534 C 78.548 69.534 78.351 69.459 78.198 69.323 C 74.681 66.216 72.215 67.05 72.115 67.083 C 71.907 67.157 71.678 67.146 71.477 67.054 C 71.276 66.962 71.119 66.794 71.04 66.588 C 70.961 66.382 70.967 66.153 71.057 65.952 C 71.146 65.751 71.312 65.593 71.517 65.513 C 71.654 65.459 74.966 64.227 79.309 68.064 C 79.437 68.177 79.527 68.326 79.568 68.491 C 79.609 68.657 79.598 68.831 79.538 68.99 C 79.478 69.149 79.371 69.287 79.231 69.384 C 79.091 69.481 78.924 69.533 78.754 69.533 Z"
        fill="#3e2d4a"/>
    <path
        id="path_35"
        d="M 96.016 69.723 C 95.846 69.723 95.679 69.671 95.539 69.574 C 95.399 69.477 95.292 69.339 95.232 69.18 C 95.172 69.021 95.161 68.847 95.202 68.681 C 95.243 68.516 95.333 68.367 95.461 68.254 C 99.795 64.424 103.114 65.647 103.253 65.703 C 103.46 65.783 103.627 65.942 103.718 66.145 C 103.808 66.348 103.814 66.579 103.735 66.786 C 103.655 66.993 103.497 67.161 103.294 67.252 C 103.091 67.343 102.861 67.35 102.653 67.271 C 102.53 67.228 100.068 66.424 96.572 69.513 C 96.419 69.649 96.221 69.724 96.016 69.723 Z"
        fill="#3e2d4a"/>
    <path
        id="path_36"
        d="M 149.423 185.864 C 149.423 185.864 158.382 191.043 174.061 177.364 C 189.74 163.685 195.331 152.947 187.061 138.592 C 178.791 124.237 158.377 108.383 153.15 108.412 C 147.923 108.441 129.264 165.482 149.423 185.864 Z"
        fill="#f54747"/>
    <path
        id="path_37"
        d="M 130.11 86.587 C 130.11 86.587 108.294 77.249 100.23 79.41 C 92.166 81.571 107.819 83.628 111.008 85.173 C 114.197 86.718 99.32 84.163 97.459 85.343 C 95.598 86.523 110.985 90.882 110.985 90.882 C 110.985 90.882 97.347 90.482 96.417 92.551 C 95.487 94.62 108.971 96.951 108.971 96.951 C 108.971 96.951 98.697 98.66 98.977 100.851 C 99.257 103.042 118.217 102.361 124.413 110.211 C 130.609 118.061 139.391 160.859 165.402 156.937 C 191.413 153.015 191.165 136.978 172.402 116.4 C 153.639 95.822 137.677 90.198 130.11 86.587 Z"
        fill="#e69d7f"/>
</svg>
