<svg
    xmlns="http://www.w3.org/2000/svg"
    viewBox="0 0 122 100"
    id="vector">
    <defs>
        <clipPath id="clip_path">
            <path d="M 14 0 L 108 0 C 111.712 0 115.275 1.476 117.899 4.101 C 120.524 6.725 122 10.288 122 14 L 122 86 C 122 89.712 120.524 93.275 117.899 95.899 C 115.275 98.524 111.712 100 108 100 L 14 100 C 10.288 100 6.725 98.524 4.101 95.899 C 1.476 93.275 0 89.712 0 86 L 0 14 C 0 10.288 1.476 6.725 4.101 4.101 C 6.725 1.476 10.288 0 14 0 Z"/>
        </clipPath>
        <clipPath id="clip_path_1">
            <path d="M 14 0 L 108 0 C 111.712 0 115.275 1.476 117.899 4.101 C 120.524 6.725 122 10.288 122 14 L 122 86 C 122 89.712 120.524 93.275 117.899 95.899 C 115.275 98.524 111.712 100 108 100 L 14 100 C 10.288 100 6.725 98.524 4.101 95.899 C 1.476 93.275 0 89.712 0 86 L 0 14 C 0 10.288 1.476 6.725 4.101 4.101 C 6.725 1.476 10.288 0 14 0 Z"/>
        </clipPath>
        <clipPath id="clip_path_2">
            <path d="M 14 0 L 108 0 C 111.712 0 115.275 1.476 117.899 4.101 C 120.524 6.725 122 10.288 122 14 L 122 86 C 122 89.712 120.524 93.275 117.899 95.899 C 115.275 98.524 111.712 100 108 100 L 14 100 C 10.288 100 6.725 98.524 4.101 95.899 C 1.476 93.275 0 89.712 0 86 L 0 14 C 0 10.288 1.476 6.725 4.101 4.101 C 6.725 1.476 10.288 0 14 0 Z"/>
        </clipPath>
        <clipPath id="clip_path_3">
            <path d="M 14 0 L 108 0 C 111.712 0 115.275 1.476 117.899 4.101 C 120.524 6.725 122 10.288 122 14 L 122 86 C 122 89.712 120.524 93.275 117.899 95.899 C 115.275 98.524 111.712 100 108 100 L 14 100 C 10.288 100 6.725 98.524 4.101 95.899 C 1.476 93.275 0 89.712 0 86 L 0 14 C 0 10.288 1.476 6.725 4.101 4.101 C 6.725 1.476 10.288 0 14 0 Z"/>
        </clipPath>
        <clipPath id="clip_path_4">
            <path d="M 14 0 L 108 0 C 111.712 0 115.275 1.476 117.899 4.101 C 120.524 6.725 122 10.288 122 14 L 122 86 C 122 89.712 120.524 93.275 117.899 95.899 C 115.275 98.524 111.712 100 108 100 L 14 100 C 10.288 100 6.725 98.524 4.101 95.899 C 1.476 93.275 0 89.712 0 86 L 0 14 C 0 10.288 1.476 6.725 4.101 4.101 C 6.725 1.476 10.288 0 14 0 Z"/>
        </clipPath>
        <clipPath id="clip_path_5">
            <path d="M 14 0 L 108 0 C 111.712 0 115.275 1.476 117.899 4.101 C 120.524 6.725 122 10.288 122 14 L 122 86 C 122 89.712 120.524 93.275 117.899 95.899 C 115.275 98.524 111.712 100 108 100 L 14 100 C 10.288 100 6.725 98.524 4.101 95.899 C 1.476 93.275 0 89.712 0 86 L 0 14 C 0 10.288 1.476 6.725 4.101 4.101 C 6.725 1.476 10.288 0 14 0 Z"/>
        </clipPath>
        <clipPath id="clip_path_6">
            <path d="M 14 0 L 108 0 C 111.712 0 115.275 1.476 117.899 4.101 C 120.524 6.725 122 10.288 122 14 L 122 86 C 122 89.712 120.524 93.275 117.899 95.899 C 115.275 98.524 111.712 100 108 100 L 14 100 C 10.288 100 6.725 98.524 4.101 95.899 C 1.476 93.275 0 89.712 0 86 L 0 14 C 0 10.288 1.476 6.725 4.101 4.101 C 6.725 1.476 10.288 0 14 0 Z"/>
        </clipPath>
        <clipPath id="clip_path_7">
            <path d="M 14 0 L 108 0 C 111.712 0 115.275 1.476 117.899 4.101 C 120.524 6.725 122 10.288 122 14 L 122 86 C 122 89.712 120.524 93.275 117.899 95.899 C 115.275 98.524 111.712 100 108 100 L 14 100 C 10.288 100 6.725 98.524 4.101 95.899 C 1.476 93.275 0 89.712 0 86 L 0 14 C 0 10.288 1.476 6.725 4.101 4.101 C 6.725 1.476 10.288 0 14 0 Z"/>
        </clipPath>
        <clipPath id="clip_path_8">
            <path d="M 14 0 L 108 0 C 111.712 0 115.275 1.476 117.899 4.101 C 120.524 6.725 122 10.288 122 14 L 122 86 C 122 89.712 120.524 93.275 117.899 95.899 C 115.275 98.524 111.712 100 108 100 L 14 100 C 10.288 100 6.725 98.524 4.101 95.899 C 1.476 93.275 0 89.712 0 86 L 0 14 C 0 10.288 1.476 6.725 4.101 4.101 C 6.725 1.476 10.288 0 14 0 Z"/>
        </clipPath>
        <clipPath id="clip_path_9">
            <path d="M 14 0 L 108 0 C 111.712 0 115.275 1.476 117.899 4.101 C 120.524 6.725 122 10.288 122 14 L 122 86 C 122 89.712 120.524 93.275 117.899 95.899 C 115.275 98.524 111.712 100 108 100 L 14 100 C 10.288 100 6.725 98.524 4.101 95.899 C 1.476 93.275 0 89.712 0 86 L 0 14 C 0 10.288 1.476 6.725 4.101 4.101 C 6.725 1.476 10.288 0 14 0 Z"/>
        </clipPath>
        <clipPath id="clip_path_10">
            <path d="M 14 0 L 108 0 C 111.712 0 115.275 1.476 117.899 4.101 C 120.524 6.725 122 10.288 122 14 L 122 86 C 122 89.712 120.524 93.275 117.899 95.899 C 115.275 98.524 111.712 100 108 100 L 14 100 C 10.288 100 6.725 98.524 4.101 95.899 C 1.476 93.275 0 89.712 0 86 L 0 14 C 0 10.288 1.476 6.725 4.101 4.101 C 6.725 1.476 10.288 0 14 0 Z"/>
        </clipPath>
        <clipPath id="clip_path_11">
            <path d="M 14 0 L 108 0 C 111.712 0 115.275 1.476 117.899 4.101 C 120.524 6.725 122 10.288 122 14 L 122 86 C 122 89.712 120.524 93.275 117.899 95.899 C 115.275 98.524 111.712 100 108 100 L 14 100 C 10.288 100 6.725 98.524 4.101 95.899 C 1.476 93.275 0 89.712 0 86 L 0 14 C 0 10.288 1.476 6.725 4.101 4.101 C 6.725 1.476 10.288 0 14 0 Z"/>
        </clipPath>
        <clipPath id="clip_path_12">
            <path d="M 14 0 L 108 0 C 111.712 0 115.275 1.476 117.899 4.101 C 120.524 6.725 122 10.288 122 14 L 122 86 C 122 89.712 120.524 93.275 117.899 95.899 C 115.275 98.524 111.712 100 108 100 L 14 100 C 10.288 100 6.725 98.524 4.101 95.899 C 1.476 93.275 0 89.712 0 86 L 0 14 C 0 10.288 1.476 6.725 4.101 4.101 C 6.725 1.476 10.288 0 14 0 Z"/>
        </clipPath>
        <clipPath id="clip_path_13">
            <path d="M 14 0 L 108 0 C 111.712 0 115.275 1.476 117.899 4.101 C 120.524 6.725 122 10.288 122 14 L 122 86 C 122 89.712 120.524 93.275 117.899 95.899 C 115.275 98.524 111.712 100 108 100 L 14 100 C 10.288 100 6.725 98.524 4.101 95.899 C 1.476 93.275 0 89.712 0 86 L 0 14 C 0 10.288 1.476 6.725 4.101 4.101 C 6.725 1.476 10.288 0 14 0 Z"/>
        </clipPath>
        <clipPath id="clip_path_14">
            <path d="M 14 0 L 108 0 C 111.712 0 115.275 1.476 117.899 4.101 C 120.524 6.725 122 10.288 122 14 L 122 86 C 122 89.712 120.524 93.275 117.899 95.899 C 115.275 98.524 111.712 100 108 100 L 14 100 C 10.288 100 6.725 98.524 4.101 95.899 C 1.476 93.275 0 89.712 0 86 L 0 14 C 0 10.288 1.476 6.725 4.101 4.101 C 6.725 1.476 10.288 0 14 0 Z"/>
        </clipPath>
        <clipPath id="clip_path_15">
            <path d="M 14 0 L 108 0 C 111.712 0 115.275 1.476 117.899 4.101 C 120.524 6.725 122 10.288 122 14 L 122 86 C 122 89.712 120.524 93.275 117.899 95.899 C 115.275 98.524 111.712 100 108 100 L 14 100 C 10.288 100 6.725 98.524 4.101 95.899 C 1.476 93.275 0 89.712 0 86 L 0 14 C 0 10.288 1.476 6.725 4.101 4.101 C 6.725 1.476 10.288 0 14 0 Z"/>
        </clipPath>
        <clipPath id="clip_path_16">
            <path d="M 14 0 L 108 0 C 111.712 0 115.275 1.476 117.899 4.101 C 120.524 6.725 122 10.288 122 14 L 122 86 C 122 89.712 120.524 93.275 117.899 95.899 C 115.275 98.524 111.712 100 108 100 L 14 100 C 10.288 100 6.725 98.524 4.101 95.899 C 1.476 93.275 0 89.712 0 86 L 0 14 C 0 10.288 1.476 6.725 4.101 4.101 C 6.725 1.476 10.288 0 14 0 Z"/>
        </clipPath>
        <clipPath id="clip_path_17">
            <path d="M 14 0 L 108 0 C 111.712 0 115.275 1.476 117.899 4.101 C 120.524 6.725 122 10.288 122 14 L 122 86 C 122 89.712 120.524 93.275 117.899 95.899 C 115.275 98.524 111.712 100 108 100 L 14 100 C 10.288 100 6.725 98.524 4.101 95.899 C 1.476 93.275 0 89.712 0 86 L 0 14 C 0 10.288 1.476 6.725 4.101 4.101 C 6.725 1.476 10.288 0 14 0 Z"/>
        </clipPath>
        <clipPath id="clip_path_18">
            <path d="M 14 0 L 108 0 C 111.712 0 115.275 1.476 117.899 4.101 C 120.524 6.725 122 10.288 122 14 L 122 86 C 122 89.712 120.524 93.275 117.899 95.899 C 115.275 98.524 111.712 100 108 100 L 14 100 C 10.288 100 6.725 98.524 4.101 95.899 C 1.476 93.275 0 89.712 0 86 L 0 14 C 0 10.288 1.476 6.725 4.101 4.101 C 6.725 1.476 10.288 0 14 0 Z"/>
        </clipPath>
        <clipPath id="clip_path_19">
            <path d="M 14 0 L 108 0 C 111.712 0 115.275 1.476 117.899 4.101 C 120.524 6.725 122 10.288 122 14 L 122 86 C 122 89.712 120.524 93.275 117.899 95.899 C 115.275 98.524 111.712 100 108 100 L 14 100 C 10.288 100 6.725 98.524 4.101 95.899 C 1.476 93.275 0 89.712 0 86 L 0 14 C 0 10.288 1.476 6.725 4.101 4.101 C 6.725 1.476 10.288 0 14 0 Z"/>
        </clipPath>
        <clipPath id="clip_path_20">
            <path d="M 14 0 L 108 0 C 111.712 0 115.275 1.476 117.899 4.101 C 120.524 6.725 122 10.288 122 14 L 122 86 C 122 89.712 120.524 93.275 117.899 95.899 C 115.275 98.524 111.712 100 108 100 L 14 100 C 10.288 100 6.725 98.524 4.101 95.899 C 1.476 93.275 0 89.712 0 86 L 0 14 C 0 10.288 1.476 6.725 4.101 4.101 C 6.725 1.476 10.288 0 14 0 Z"/>
        </clipPath>
        <clipPath id="clip_path_21">
            <path d="M 14 0 L 108 0 C 111.712 0 115.275 1.476 117.899 4.101 C 120.524 6.725 122 10.288 122 14 L 122 86 C 122 89.712 120.524 93.275 117.899 95.899 C 115.275 98.524 111.712 100 108 100 L 14 100 C 10.288 100 6.725 98.524 4.101 95.899 C 1.476 93.275 0 89.712 0 86 L 0 14 C 0 10.288 1.476 6.725 4.101 4.101 C 6.725 1.476 10.288 0 14 0 Z"/>
        </clipPath>
        <clipPath id="clip_path_22">
            <path d="M 14 0 L 108 0 C 111.712 0 115.275 1.476 117.899 4.101 C 120.524 6.725 122 10.288 122 14 L 122 86 C 122 89.712 120.524 93.275 117.899 95.899 C 115.275 98.524 111.712 100 108 100 L 14 100 C 10.288 100 6.725 98.524 4.101 95.899 C 1.476 93.275 0 89.712 0 86 L 0 14 C 0 10.288 1.476 6.725 4.101 4.101 C 6.725 1.476 10.288 0 14 0 Z"/>
        </clipPath>
        <clipPath id="clip_path_23">
            <path d="M 14 0 L 108 0 C 111.712 0 115.275 1.476 117.899 4.101 C 120.524 6.725 122 10.288 122 14 L 122 86 C 122 89.712 120.524 93.275 117.899 95.899 C 115.275 98.524 111.712 100 108 100 L 14 100 C 10.288 100 6.725 98.524 4.101 95.899 C 1.476 93.275 0 89.712 0 86 L 0 14 C 0 10.288 1.476 6.725 4.101 4.101 C 6.725 1.476 10.288 0 14 0 Z"/>
        </clipPath>
        <clipPath id="clip_path_24">
            <path d="M 14 0 L 108 0 C 111.712 0 115.275 1.476 117.899 4.101 C 120.524 6.725 122 10.288 122 14 L 122 86 C 122 89.712 120.524 93.275 117.899 95.899 C 115.275 98.524 111.712 100 108 100 L 14 100 C 10.288 100 6.725 98.524 4.101 95.899 C 1.476 93.275 0 89.712 0 86 L 0 14 C 0 10.288 1.476 6.725 4.101 4.101 C 6.725 1.476 10.288 0 14 0 Z"/>
        </clipPath>
    </defs>
    <g id="group">
        <path
            id="path"
            clip-path="url(#clip_path)"
            d="M 48.307 36.326 C 47.856 34.573 45.407 33.936 43.866 34.894 C 42.857 35.732 42.175 36.9 41.942 38.191 C 41.71 39.482 41.941 40.815 42.594 41.952 C 43.601 43.509 45.623 44.101 47.477 44.084 Q 48.224 55.048 48.153 66.046 C 49.708 67.399 51.601 68.305 53.63 68.667 C 55.659 69.029 57.748 68.834 59.675 68.102 C 60.782 67.719 61.754 67.02 62.468 66.091 C 64.068 63.791 62.268 58.917 64.932 57.656 C 66.065 57.121 67.9 57.556 69.149 57.24 C 70.897 56.857 72.453 55.864 73.536 54.44 C 77.452 48.95 76.719 41.09 76.574 34.793 C 76.504 31.773 76.642 28.753 76.987 25.752 C 77.287 23.158 77.687 20.32 76.287 18.116 C 74.516 15.322 70.718 14.811 67.415 14.63 C 61.957 14.33 55.97 14.33 51.71 17.757 C 50.296 18.913 49.17 20.381 48.421 22.046 C 47.671 23.711 47.318 25.527 47.39 27.352 C 47.484 27.78 47.489 28.223 47.405 28.653 C 47.321 29.083 47.149 29.491 46.901 29.852 Z"
            fill="#e69d7f"/>
        <path
            id="path_1"
            clip-path="url(#clip_path_1)"
            d="M 56.597 22.078 C 61.115 25.157 66.411 28.259 71.727 26.978 Q 70.978 34.733 70.227 42.49 C 65.415 42.258 60.388 42.066 56.009 44.072 C 55.557 44.23 55.171 44.535 54.914 44.939 C 54.765 45.324 54.724 45.743 54.796 46.15 Q 55.236 51.18 55.982 56.177 C 54.346 56.234 52.708 56.128 51.092 55.863 C 52.107 57.671 53.768 59.032 55.74 59.672 C 56.188 59.746 56.594 59.982 56.882 60.333 C 57.025 60.653 57.064 61.01 56.994 61.354 Q 56.594 65.267 56.205 69.181 C 58.679 70.213 61.592 68.347 62.671 65.893 C 63.75 63.439 63.497 60.633 63.222 57.966 C 65.892 57.795 68.651 57.473 70.948 56.1 C 73.771 54.413 74.002 53 74.783 49.8 C 75.564 46.6 77.01 41.6 76.931 38.308 Q 76.686 28.163 76.439 18.017 L 74.984 18.202 Z"
            fill="#e69d7f"/>
        <path
            id="path_2"
            clip-path="url(#clip_path_2)"
            d="M 57.342 57.318 C 56.683 57.154 56.742 53.166 57.035 52.58 C 58.151 50.323 61.18 51.642 63.211 51.344 C 64.398 51.226 65.529 50.775 66.472 50.044 C 67.236 49.322 67.822 48.431 68.184 47.444 C 68.811 45.948 69.227 44.372 69.421 42.762 C 70.501 43.366 71.733 43.644 72.967 43.562 C 73.543 43.445 74.141 43.485 74.696 43.68 C 75.538 44.116 75.638 45.26 75.615 46.207 C 75.646 47.979 75.41 49.746 74.915 51.448 C 74.353 53.05 73.385 54.479 72.106 55.595 C 70.826 56.711 69.279 57.476 67.615 57.815 C 65.039 58.309 62.379 57.735 59.763 57.915 Z"
            fill="#e69d7f"/>
        <path
            id="path_3"
            clip-path="url(#clip_path_3)"
            d="M 17.25 100.625 C 17.94 97.936 18.701 94.048 19.637 90.86 C 21.106 85.852 23.237 80.674 27.076 77.336 C 33.234 71.985 42.362 70.767 47.955 64.828 C 48.835 66.315 50.111 67.528 51.639 68.333 C 53.168 69.137 54.89 69.501 56.614 69.385 C 58.313 69.193 59.931 68.552 61.302 67.529 C 62.672 66.506 63.747 65.137 64.414 63.562 C 66.683 66.662 70.602 67.218 74.128 68.022 C 77.943 69.017 81.355 71.175 83.888 74.196 C 89.662 80.734 90.288 89.36 95.679 96.109 C 97.211 97.791 98.589 99.607 99.797 101.535 C 100.037 101.885 100.133 102.316 100.065 102.735 C 99.94 103.053 99.721 103.325 99.438 103.516 C 96.219 106.116 92.177 107.429 88.227 108.661 C 74.54 112.93 59.927 116.91 46.055 113.289 C 39.926 111.689 34.278 108.673 28.694 105.684 Z"
            fill="#ffdf77"/>
        <path
            id="path_4"
            clip-path="url(#clip_path_4)"
            d="M 24.422 107.191 L 29.078 94.904 C 29.699 92.94 30.648 91.096 31.884 89.448 C 31.99 89.288 32.129 89.152 32.292 89.05 C 32.454 88.948 32.637 88.882 32.827 88.856 C 33.372 88.856 33.712 89.432 33.927 89.933 C 35.976 94.931 37.199 100.229 37.548 105.62 C 37.711 107.657 37.689 109.959 36.248 111.409 C 35.588 111.96 34.817 112.364 33.988 112.593 C 33.159 112.822 32.291 112.87 31.441 112.736 C 29.748 112.458 28.037 112.3 26.321 112.264 Z"
            fill="#ffda60"/>
        <path
            id="path_5"
            clip-path="url(#clip_path_5)"
            d="M 57.424 69.188 C 57.724 71.931 61.241 72.96 62.768 75.259 C 63.437 76.433 63.831 77.745 63.918 79.094 C 65.218 89.031 64.434 99.115 64.924 109.124 C 64.883 111.064 65.305 112.986 66.157 114.73 C 69.818 115.73 73.738 115.106 77.363 113.983 C 80.988 112.86 84.455 111.253 88.112 110.243 C 88.823 110.043 89.657 109.765 89.855 109.054 C 89.925 108.572 89.835 108.08 89.599 107.654 C 87.734 103.086 87.619 98.03 87.099 93.123 C 86.579 88.216 85.513 83.083 82.212 79.416 C 79.561 76.473 75.801 74.84 72.271 73.041 C 68.741 71.242 65.15 69.01 63.397 65.459 C 62.984 66.45 62.314 67.314 61.457 67.961 C 60.6 68.609 59.586 69.016 58.519 69.142 Z"
            fill="#ffda60"/>
        <path
            id="path_6"
            clip-path="url(#clip_path_6)"
            d="M 41.932 27.019 C 42.161 28.426 42.536 29.805 43.051 31.134 C 43.303 31.789 43.589 32.43 43.906 33.056 C 44.128 33.492 44.766 34.207 44.65 34.725 C 43.05 34.642 41.895 37.193 41.714 38.45 C 41.564 39.424 41.674 40.42 42.033 41.338 C 42.391 42.255 42.986 43.062 43.757 43.676 C 44.341 44.104 45.035 44.357 45.757 44.406 C 46.992 47.017 47.624 49.872 47.606 52.76 C 47.572 54.014 47.553 55.269 47.559 56.53 Q 47.571 58.761 47.683 60.988 C 47.822 61.838 47.885 62.699 47.872 63.56 C 47.739 64.588 46.913 65.031 46.145 65.615 C 46.043 65.683 45.947 65.761 45.858 65.846 C 45.778 65.932 45.71 66.03 45.638 66.121 C 45.586 66.175 45.555 66.247 45.55 66.322 C 45.545 66.397 45.568 66.472 45.613 66.532 C 45.659 66.591 45.725 66.632 45.798 66.646 C 45.871 66.661 45.948 66.649 46.013 66.613 L 46.298 66.452 C 46.402 66.385 46.497 66.305 46.581 66.215 C 46.74 66.062 46.899 65.915 47.057 65.754 L 47.721 65.1 C 48.526 66.687 49.769 68.01 51.303 68.912 C 52.837 69.813 54.597 70.257 56.375 70.189 C 58.162 70.066 59.881 69.447 61.336 68.403 C 62.792 67.358 63.929 65.929 64.618 64.275 C 64.843 63.741 63.905 63.34 63.675 63.875 C 63.61 64.027 63.522 64.167 63.448 64.314 C 63.536 63.205 63.519 62.09 63.397 60.984 C 63.358 60.117 63.281 59.277 63.182 58.435 C 66.188 58.473 69.247 58.106 71.765 56.314 C 72.966 55.368 73.968 54.193 74.714 52.858 C 75.459 51.523 75.933 50.054 76.109 48.535 C 76.434 46.431 76.621 44.308 76.668 42.179 C 76.727 40.585 76.757 38.99 76.837 37.396 C 76.9 36.149 76.953 34.902 76.987 33.655 C 76.935 33.095 76.935 32.53 76.987 31.97 C 77.098 31.522 77.513 31.211 77.727 30.81 C 77.958 30.267 78.114 29.695 78.192 29.11 C 78.347 28.38 78.463 27.644 78.556 26.905 C 78.653 26.184 78.702 25.457 78.702 24.729 C 78.814 23.96 78.666 23.175 78.281 22.499 C 78.843 22.152 79.29 21.648 79.569 21.05 C 80.042 19.74 80.22 18.342 80.091 16.955 C 80.067 16.33 79.955 15.711 79.76 15.117 C 79.01 12.25 77.186 9.778 74.667 8.217 C 74.54 8.136 74.408 8.068 74.278 7.991 C 74.251 7.974 74.22 7.959 74.193 7.942 Q 73.799 7.715 73.393 7.517 C 73.37 7.507 73.351 7.492 73.328 7.483 C 73.305 7.474 73.304 7.475 73.293 7.47 C 68.744 5.293 63.212 5.83 58.487 7.17 C 54.187 8.395 49.814 11.026 48.263 15.21 C 48.206 15.31 48.148 15.404 48.099 15.504 C 47.904 15.509 47.709 15.523 47.516 15.548 C 46.116 15.667 44.778 16.18 43.659 17.029 C 42.539 17.877 41.683 19.026 41.19 20.342 C 40.651 22.307 40.809 24.4 41.638 26.262 C 41.741 26.516 41.838 26.767 41.932 27.019 Z M 75.996 34.448 C 75.862 37.553 75.728 40.666 75.54 43.77 C 73.987 43.44 72.561 42.662 71.04 42.209 C 69.199 41.684 67.279 41.487 65.37 41.628 C 63.492 41.771 61.634 42.115 59.829 42.654 C 58.874 42.926 57.929 43.231 56.99 43.554 C 56.239 43.715 55.528 44.027 54.9 44.469 C 53.726 42.985 52.56 41.492 51.435 39.969 Q 50.526 38.741 49.651 37.488 C 49.451 37.208 49.264 36.925 49.071 36.644 C 49.093 36.589 49.107 36.531 49.11 36.472 C 49.284 32.978 49.129 29.476 48.648 26.011 C 49.567 25.902 50.449 25.586 51.229 25.087 C 52.008 24.588 52.664 23.919 53.148 23.13 C 53.311 22.86 53.439 22.571 53.528 22.268 C 55.052 22.946 56.647 23.451 58.283 23.775 C 60.993 24.344 63.753 24.643 66.522 24.667 C 69.222 24.732 72.291 25.03 74.916 24.267 C 75.266 24.162 75.608 24.028 75.936 23.867 C 76.166 27.39 76.186 30.923 75.995 34.448 Z M 76.565 23.521 L 76.565 23.521 Z M 42.637 38.574 C 42.699 37.907 42.952 37.271 43.365 36.743 C 43.777 36.215 44.333 35.816 44.966 35.595 C 45.439 35.451 45.94 35.43 46.423 35.533 C 46.907 35.635 47.356 35.859 47.729 36.183 C 47.82 36.35 47.942 36.513 48.064 36.7 Q 48.491 37.359 48.929 38.012 Q 49.829 39.356 50.77 40.673 C 51.996 42.39 53.27 44.06 54.636 45.673 C 54.688 45.736 54.758 45.784 54.836 45.809 C 54.632 47.793 54.638 49.793 54.853 51.776 C 54.98 52.847 55.183 53.907 55.462 54.949 C 54.041 53.695 52.691 52.363 51.419 50.958 C 50.434 49.82 49.538 48.59 48.657 47.391 C 48.566 47.232 48.527 47.048 48.547 46.865 C 48.554 45.608 48.62 44.37 48.606 43.114 C 48.602 43.002 48.555 42.896 48.474 42.817 C 48.394 42.739 48.286 42.695 48.174 42.695 C 48.062 42.694 47.953 42.737 47.872 42.814 C 47.447 43.233 46.887 43.489 46.292 43.536 C 46.197 43.505 46.094 43.507 46.001 43.542 C 45.195 43.515 44.429 43.177 43.866 42.6 C 43.368 42.067 42.999 41.427 42.786 40.73 C 42.573 40.032 42.522 39.295 42.637 38.575 Z M 62.358 64.783 C 62.395 64.914 62.481 65.025 62.599 65.093 C 62.717 65.161 62.856 65.18 62.988 65.146 C 62.263 66.294 61.275 67.252 60.105 67.941 C 58.936 68.63 57.618 69.029 56.263 69.106 C 54.731 69.135 53.218 68.768 51.87 68.04 C 50.522 67.312 49.384 66.249 48.568 64.952 C 48.589 64.937 48.607 64.919 48.623 64.899 C 48.872 64.314 48.928 63.665 48.784 63.046 Q 48.743 62.018 48.711 60.989 Q 48.666 59.525 48.623 58.061 C 48.666 56.361 48.659 54.65 48.659 52.961 C 48.659 51.572 48.643 50.183 48.637 48.794 C 50.351 51.436 52.44 53.816 54.837 55.858 C 54.537 55.715 54.237 55.568 53.948 55.396 C 53.826 55.334 53.685 55.321 53.554 55.359 C 53.423 55.398 53.311 55.485 53.242 55.603 C 53.173 55.721 53.152 55.861 53.182 55.995 C 53.213 56.128 53.294 56.244 53.408 56.32 C 56.077 57.939 59.402 58.32 62.464 58.42 C 62.495 58.42 62.527 58.42 62.559 58.42 C 62.459 59.266 62.382 60.108 62.343 60.979 C 62.164 62.241 62.169 63.522 62.358 64.783 Z M 72.603 54.148 C 72.059 54.873 71.34 55.449 70.514 55.822 C 66.924 57.299 62.896 57.182 59.028 56.851 C 58.32 56.879 57.622 56.668 57.048 56.251 C 56.695 55.709 56.47 55.093 56.391 54.451 C 56.115 53.414 55.858 52.374 55.684 51.314 C 55.506 50.214 55.403 49.104 55.378 47.99 C 55.33 46.995 55.385 45.997 55.542 45.013 C 56.126 44.893 56.698 44.726 57.255 44.513 C 58.142 44.249 59.034 43.999 59.932 43.776 C 61.838 43.28 63.789 42.974 65.755 42.861 C 67.675 42.758 69.597 43.026 71.416 43.651 C 72.735 44.199 74.09 44.654 75.471 45.015 C 75.471 45.074 75.465 45.134 75.46 45.194 C 75.25 48.31 74.744 51.721 72.603 54.149 Z"
            fill="#372b7b"/>
        <path
            id="path_7"
            clip-path="url(#clip_path_7)"
            d="M 61.461 36.416 L 61.296 36.511 L 61.296 36.511 L 61.196 36.54 C 61.087 36.584 60.985 36.645 60.896 36.721 C 61.068 36.598 60.934 36.688 60.896 36.712 L 60.735 36.8 L 60.735 36.8 L 60.645 36.829 L 60.44 36.877 L 60.333 36.884 L 60.125 36.884 L 60.014 36.873 L 60.036 36.873 L 59.819 36.818 L 59.73 36.788 L 59.717 36.788 L 59.717 36.788 L 59.535 36.697 L 59.375 36.597 L 59.346 36.572 L 59.28 36.507 L 59.218 36.439 L 59.196 36.407 L 59.09 36.212 C 59.038 36.124 58.955 36.057 58.858 36.025 C 58.76 35.993 58.654 35.998 58.56 36.039 C 58.466 36.079 58.39 36.152 58.344 36.243 C 58.299 36.335 58.289 36.44 58.314 36.539 C 58.414 36.921 58.626 37.265 58.922 37.526 C 59.218 37.787 59.585 37.955 59.977 38.007 C 60.382 38.085 60.801 38.057 61.193 37.928 C 61.474 37.855 61.725 37.693 61.907 37.466 C 62.007 37.298 62.075 37.113 62.107 36.92 C 62.129 36.836 62.125 36.747 62.097 36.664 C 62.069 36.582 62.018 36.509 61.949 36.455 C 61.881 36.401 61.798 36.368 61.711 36.361 C 61.624 36.354 61.537 36.373 61.461 36.416 Z"
            fill="#372b7b"/>
        <path
            id="path_8"
            clip-path="url(#clip_path_8)"
            d="M 60.042 36.873 C 60.087 36.881 60.158 36.873 60.042 36.873 Z"
            fill="#372b7b"/>
        <path
            id="path_9"
            clip-path="url(#clip_path_9)"
            d="M 70.677 37.226 C 70.671 37.215 70.663 37.205 70.653 37.197 L 70.661 37.21 Z"
            fill="#372b7b"/>
        <path
            id="path_10"
            clip-path="url(#clip_path_10)"
            d="M 71.324 37.499 L 71.3 37.499 L 71.316 37.499 Z"
            fill="#372b7b"/>
        <path
            id="path_11"
            clip-path="url(#clip_path_11)"
            d="M 72.588 36.403 C 72.473 36.528 72.356 36.652 72.233 36.77 C 72.11 36.888 72.026 37.005 71.916 37.118 L 71.733 37.292 L 71.725 37.301 L 71.725 37.301 L 71.625 37.371 L 71.517 37.434 L 71.472 37.458 L 71.416 37.477 L 71.33 37.498 C 71.338 37.497 71.346 37.497 71.354 37.498 L 71.322 37.498 L 71.322 37.498 C 71.257 37.516 71.279 37.505 71.31 37.498 L 71.255 37.498 L 71.155 37.498 L 70.975 37.451 L 70.908 37.417 L 70.846 37.379 L 70.714 37.249 L 70.687 37.222 C 70.692 37.234 70.687 37.231 70.671 37.206 L 70.651 37.184 C 70.655 37.186 70.66 37.189 70.663 37.193 L 70.663 37.193 L 70.646 37.167 L 70.646 37.167 L 70.629 37.104 C 70.601 37.013 70.545 36.933 70.468 36.876 C 70.391 36.819 70.298 36.788 70.203 36.788 C 70.107 36.788 70.014 36.819 69.937 36.876 C 69.86 36.933 69.804 37.013 69.776 37.104 C 69.726 37.309 69.73 37.523 69.788 37.726 C 69.87 37.972 70.032 38.183 70.248 38.326 C 70.57 38.559 70.962 38.675 71.359 38.656 C 71.841 38.614 72.296 38.413 72.652 38.085 C 72.837 37.936 72.998 37.76 73.13 37.563 C 73.235 37.393 73.323 37.21 73.411 37.032 C 73.472 36.923 73.492 36.796 73.468 36.674 C 73.443 36.552 73.376 36.442 73.278 36.365 C 73.179 36.285 73.053 36.244 72.926 36.251 C 72.798 36.258 72.678 36.312 72.588 36.403 Z"
            fill="#372b7b"/>
        <path
            id="path_12"
            clip-path="url(#clip_path_12)"
            d="M 60.057 31.599 Q 60.286 31.531 60.519 31.474 C 60.742 31.459 60.953 31.369 61.119 31.22 C 61.306 30.994 61.347 30.554 61.019 30.409 C 60.868 30.327 60.692 30.304 60.525 30.344 L 60.295 30.411 Q 60.052 30.487 59.813 30.575 C 59.463 30.704 59.12 30.852 58.786 31.018 C 58.157 31.337 57.565 31.723 57.018 32.168 C 56.646 32.468 57.137 33.11 57.532 32.834 C 58.3 32.282 59.156 31.864 60.064 31.597 Z"
            fill="#372b7b"/>
        <path
            id="path_13"
            clip-path="url(#clip_path_13)"
            d="M 74.043 32.758 C 73.235 32.277 72.297 32.058 71.359 32.131 C 71.271 32.131 71.186 32.166 71.124 32.228 C 71.062 32.29 71.027 32.375 71.027 32.463 C 71.027 32.551 71.062 32.636 71.124 32.698 C 71.186 32.76 71.271 32.795 71.359 32.795 C 71.542 32.819 71.722 32.856 71.9 32.906 C 72 32.936 72.107 32.969 72.209 33.006 L 72.324 33.05 L 72.324 33.05 L 72.397 33.083 C 72.58 33.167 72.757 33.264 72.926 33.375 L 73.159 33.54 C 73.047 33.44 73.181 33.558 73.203 33.577 L 73.323 33.683 C 73.419 33.778 73.544 33.837 73.678 33.851 C 73.812 33.865 73.947 33.833 74.06 33.76 C 74.173 33.687 74.257 33.577 74.299 33.449 C 74.342 33.321 74.339 33.182 74.291 33.056 C 74.243 32.93 74.154 32.824 74.038 32.756 Z"
            fill="#372b7b"/>
        <path
            id="path_14"
            clip-path="url(#clip_path_14)"
            d="M 79.227 47.466 C 80.376 47.335 81.533 47.29 82.689 47.332 C 82.454 47.788 82.316 48.287 82.281 48.798 C 82.266 49.648 82.898 49.954 83.658 49.966 C 85.611 50.01 87.559 50.026 89.517 50.058 C 90.182 50.069 90.154 49.044 89.492 49.021 L 85.174 48.898 L 84.15 48.87 C 83.979 48.865 83.808 48.863 83.638 48.857 C 83.59 48.854 83.444 48.809 83.406 48.837 C 83.436 48.547 83.518 48.264 83.65 48.004 C 83.781 47.678 83.937 47.363 84.116 47.061 C 84.178 46.945 84.198 46.81 84.173 46.681 C 84.147 46.551 84.077 46.435 83.974 46.351 C 83.872 46.268 83.744 46.222 83.612 46.223 C 82.141 46.165 80.668 46.247 79.212 46.466 C 78.588 46.566 78.588 47.546 79.227 47.466 Z"
            fill="#372b7b"/>
        <path
            id="path_15"
            clip-path="url(#clip_path_15)"
            d="M 79.495 43.152 C 80.425 42.464 81.404 41.846 82.426 41.304 C 82.451 41.816 82.58 42.317 82.806 42.777 C 83.218 43.52 83.918 43.469 84.583 43.1 C 86.297 42.161 87.992 41.201 89.703 40.25 C 90.285 39.927 89.748 39.053 89.163 39.365 L 85.361 41.417 L 84.46 41.904 C 84.309 41.985 84.16 42.069 84.01 42.149 C 83.967 42.171 83.818 42.204 83.799 42.248 C 83.68 41.982 83.61 41.696 83.594 41.405 C 83.544 41.057 83.522 40.706 83.526 40.355 C 83.522 40.223 83.472 40.097 83.385 39.997 C 83.297 39.898 83.178 39.832 83.048 39.811 C 82.918 39.79 82.784 39.815 82.67 39.882 C 81.367 40.567 80.131 41.374 78.98 42.292 C 78.491 42.692 78.982 43.541 79.495 43.152 Z"
            fill="#372b7b"/>
        <path
            id="path_16"
            clip-path="url(#clip_path_16)"
            d="M 80.535 54.351 C 80.404 54.602 80.365 54.891 80.425 55.168 C 80.484 55.444 80.639 55.691 80.862 55.866 C 81.137 56.049 81.439 56.188 81.756 56.28 L 82.88 56.704 L 84.985 57.499 C 85.115 57.563 85.263 57.581 85.404 57.55 C 85.546 57.52 85.673 57.442 85.765 57.33 C 85.857 57.219 85.909 57.079 85.912 56.934 C 85.914 56.789 85.868 56.648 85.78 56.532 C 85.692 56.417 85.568 56.335 85.428 56.299 C 84.241 55.86 83.038 55.449 81.861 54.979 C 81.751 54.934 81.645 54.823 81.641 54.938 C 81.701 54.762 81.795 54.6 81.918 54.461 C 82.189 54.096 82.353 53.663 82.392 53.21 C 82.385 53.076 82.335 52.948 82.249 52.846 C 82.163 52.743 82.046 52.671 81.916 52.641 Q 81.135 52.419 80.354 52.197 L 79.644 51.995 L 79.556 51.964 C 79.511 51.847 79.424 51.751 79.311 51.696 C 79.176 51.639 79.025 51.633 78.887 51.679 C 78.748 51.725 78.63 51.819 78.556 51.945 C 78.481 52.071 78.455 52.219 78.481 52.363 C 78.551 52.984 79.332 53.105 79.817 53.257 L 80.998 53.625 C 80.954 53.686 80.908 53.749 80.876 53.798 C 80.746 53.972 80.632 54.157 80.535 54.351 Z"
            fill="#372b7b"/>
        <path
            id="path_17"
            clip-path="url(#clip_path_17)"
            d="M 97.355 100.704 C 93.996 94.693 92.243 87.935 89.277 81.738 C 86.638 76.224 82.465 70.038 76.103 68.525 C 74.403 68.125 72.65 68.007 70.943 67.649 C 70.082 67.494 69.243 67.238 68.443 66.885 C 67.625 66.481 66.97 65.806 66.591 64.976 C 66.557 64.916 66.501 64.871 66.435 64.852 C 66.369 64.832 66.298 64.839 66.237 64.87 C 66.175 64.902 66.129 64.957 66.107 65.022 L 65.981 64.949 L 65.896 64.889 L 65.89 64.889 L 65.842 64.848 L 65.677 64.688 L 65.594 64.588 L 65.586 64.579 L 65.557 64.538 L 65.434 64.338 L 65.377 64.227 L 65.368 64.208 L 65.375 64.226 L 65.352 64.168 C 65.342 64.097 65.308 64.031 65.255 63.982 C 65.203 63.933 65.135 63.903 65.063 63.898 C 64.991 63.893 64.92 63.913 64.861 63.954 C 64.802 63.995 64.759 64.055 64.739 64.125 C 64.719 64.194 64.724 64.268 64.752 64.334 C 64.937 64.901 65.325 65.381 65.841 65.681 C 65.765 65.715 65.704 65.777 65.67 65.853 C 61.643 74.93 50.619 74.947 45.67 66.874 C 45.663 66.847 45.648 66.822 45.627 66.803 C 45.565 66.703 45.499 66.603 45.439 66.496 C 45.33 66.305 44.995 66.432 45.075 66.649 C 45.114 66.749 45.159 66.849 45.2 66.949 C 42.134 68.766 38.968 70.409 35.717 71.87 C 32.517 73.386 29.098 74.833 26.276 77.001 C 23.88 78.932 21.992 81.419 20.776 84.246 C 19.332 87.42 16.943 97.535 16.489 100.995 C 16.408 101.616 17.364 101.685 17.539 101.138 C 18.62 97.758 20.426 87.75 21.944 84.501 C 23.21 81.569 25.274 79.05 27.9 77.232 C 33.542 73.586 39.876 71.232 45.323 67.249 C 49.39 76.699 62.948 75.7 66.482 66.195 C 66.513 66.109 66.51 66.014 66.473 65.931 C 66.947 66.822 67.741 67.501 68.695 67.831 C 70.21 68.349 71.775 68.705 73.365 68.894 C 74.799 69.057 76.205 69.412 77.544 69.95 C 79.123 70.666 80.583 71.619 81.872 72.778 C 87.139 77.493 89.654 84.541 92.142 90.956 C 93.393 94.45 94.893 97.849 96.63 101.128 C 96.694 101.207 96.784 101.26 96.884 101.278 C 96.984 101.296 97.087 101.278 97.174 101.226 C 97.262 101.175 97.328 101.094 97.361 100.999 C 97.394 100.903 97.392 100.798 97.355 100.704 Z"
            fill="#372b7b"/>
        <path
            id="path_18"
            clip-path="url(#clip_path_18)"
            d="M 46.114 40.995 C 46.221 41.039 46.338 41.052 46.451 41.032 C 46.565 41.012 46.671 40.961 46.756 40.883 C 46.842 40.806 46.904 40.706 46.935 40.595 C 46.991 40.45 47.022 40.296 47.026 40.141 C 47.019 40.026 47.019 39.91 47.026 39.795 C 47.042 39.539 47.023 39.283 46.969 39.032 C 46.886 38.578 46.634 38.171 46.263 37.896 C 46.098 37.769 45.905 37.681 45.701 37.64 C 45.496 37.598 45.285 37.604 45.083 37.656 C 44.914 37.712 44.761 37.807 44.636 37.934 C 44.511 38.06 44.418 38.215 44.364 38.384 C 44.297 38.555 44.283 38.742 44.324 38.922 C 44.364 39.101 44.457 39.264 44.591 39.39 C 44.626 39.424 44.672 39.444 44.721 39.444 C 44.77 39.444 44.817 39.424 44.851 39.39 C 44.886 39.356 44.905 39.309 44.905 39.26 C 44.905 39.211 44.886 39.165 44.852 39.13 C 44.79 39.056 44.75 38.966 44.738 38.87 C 44.726 38.774 44.742 38.676 44.784 38.589 C 44.823 38.495 44.881 38.41 44.956 38.341 C 45.02 38.276 45.102 38.23 45.191 38.211 C 45.307 38.193 45.426 38.202 45.539 38.238 C 45.651 38.275 45.753 38.337 45.836 38.42 L 45.912 38.497 L 45.95 38.537 L 46.073 38.737 L 46.097 38.786 L 46.097 38.78 L 46.131 38.886 L 46.162 39.014 L 46.173 39.079 L 46.173 39.254 L 46.168 39.319 L 46.168 39.363 L 46.168 39.355 C 46.146 39.455 46.127 39.555 46.098 39.655 L 46.078 39.719 L 46.078 39.719 L 46.039 39.772 L 46.05 39.759 C 45.962 39.873 45.889 39.998 45.833 40.131 C 45.776 40.23 45.748 40.344 45.752 40.458 C 45.756 40.572 45.792 40.683 45.856 40.778 C 45.92 40.873 46.009 40.948 46.114 40.995 Z"
            fill="#372b7b"/>
        <path
            id="path_19"
            clip-path="url(#clip_path_19)"
            d="M 80.556 95.379 C 79.898 90.726 79.48 86.022 78.667 81.393 C 78.645 81.268 78.449 81.3 78.449 81.422 C 78.596 86.133 79.011 90.831 79.693 95.495 Q 80.099 98.784 80.568 102.063 C 80.893 104.338 80.974 106.996 81.826 109.139 C 81.853 109.226 81.911 109.302 81.988 109.351 C 82.065 109.4 82.157 109.421 82.248 109.409 C 82.339 109.397 82.423 109.353 82.484 109.286 C 82.546 109.218 82.582 109.131 82.586 109.039 C 82.667 106.902 81.978 104.597 81.635 102.49 Q 81.06 98.937 80.556 95.379 Z"
            fill="#372b7b"/>
        <path
            id="path_20"
            clip-path="url(#clip_path_20)"
            d="M 33.616 90.904 C 33.395 92.192 33.305 93.498 33.346 94.804 C 33.272 96.137 33.186 97.471 33.096 98.804 Q 32.813 102.97 32.224 107.104 C 32.124 107.779 33.164 108.065 33.255 107.388 C 33.626 104.642 33.909 101.888 34.084 99.121 C 34.172 97.734 34.218 96.351 34.224 94.962 C 34.342 93.606 34.281 92.239 34.042 90.899 C 34.027 90.854 33.999 90.814 33.96 90.786 C 33.921 90.759 33.875 90.744 33.827 90.744 C 33.78 90.745 33.733 90.761 33.695 90.79 C 33.657 90.818 33.63 90.858 33.616 90.904 Z"
            fill="#372b7b"/>
        <path
            id="path_21"
            clip-path="url(#clip_path_21)"
            d="M 67.916 47.172 C 67.308 47.143 66.697 47.137 66.089 47.138 C 64.845 47.138 63.602 47.194 62.361 47.287 C 61.729 47.335 61.713 48.3 62.361 48.287 Q 64.187 48.237 66.016 48.321 C 66.601 48.348 67.185 48.39 67.769 48.429 C 68.394 48.545 69.034 48.551 69.661 48.445 C 69.794 48.404 69.907 48.314 69.975 48.192 C 70.043 48.071 70.062 47.928 70.027 47.793 C 69.993 47.658 69.907 47.542 69.789 47.468 C 69.193 47.238 68.554 47.137 67.916 47.172 Z"
            fill="#372b7b"/>
        <path
            id="path_22"
            clip-path="url(#clip_path_22)"
            d="M 68.635 52.146 C 66.151 52.808 63.541 52.842 61.04 52.246 C 60.942 52.22 60.837 52.234 60.749 52.285 C 60.661 52.336 60.596 52.42 60.569 52.517 C 60.542 52.615 60.555 52.72 60.604 52.809 C 60.654 52.898 60.736 52.964 60.834 52.992 C 63.452 53.88 66.273 53.984 68.949 53.292 C 69.1 53.25 69.229 53.15 69.307 53.013 C 69.384 52.876 69.405 52.714 69.363 52.562 C 69.322 52.411 69.222 52.282 69.085 52.204 C 68.949 52.126 68.787 52.105 68.635 52.146 Z"
            fill="#372b7b"/>
        <path
            id="path_23"
            clip-path="url(#clip_path_23)"
            d="M 54.112 14.231 C 55.898 12.864 57.897 11.8 60.028 11.08 C 62.29 10.362 64.402 10.623 66.687 10.391 C 66.929 10.384 67.161 10.291 67.341 10.129 C 67.521 9.967 67.637 9.746 67.67 9.506 C 67.702 9.266 67.649 9.022 67.518 8.818 C 67.388 8.614 67.189 8.462 66.958 8.391 C 62.289 6.778 56.275 9.617 53.258 13.118 C 52.771 13.682 53.429 14.743 54.112 14.231 Z"
            fill="#ffffff"/>
        <path
            id="path_24"
            clip-path="url(#clip_path_24)"
            d="M 71.625 11.615 C 72.036 11.615 72.43 11.452 72.721 11.161 C 73.012 10.87 73.175 10.476 73.175 10.065 C 73.175 9.654 73.012 9.26 72.721 8.969 C 72.43 8.678 72.036 8.515 71.625 8.515 C 71.214 8.515 70.82 8.678 70.529 8.969 C 70.238 9.26 70.075 9.654 70.075 10.065 C 70.075 10.476 70.238 10.87 70.529 11.161 C 70.82 11.452 71.214 11.615 71.625 11.615 Z"
            fill="#ffffff"/>
    </g>
</svg>
