<svg
    xmlns="http://www.w3.org/2000/svg"
    viewBox="0 0 125 189"
    id="vector">
    <path
        id="path"
        d="M 69.177 140.707 C 69.524 140.907 69.277 140.492 69.177 140.707 Z"
        fill="#7777ff"/>
    <path
        id="path_1"
        d="M 0.117 169.048 C 0.727 171.64 4.08 173.738 7.35 175.389 C 9.316 176.364 11.25 177.172 12.535 177.817 C 17.324 180.206 22.28 182.242 27.365 183.91 C 31.8 185.373 36.322 186.559 40.905 187.461 C 57.401 190.734 74.427 190.214 90.693 185.941 C 94.544 185.004 98.274 183.624 101.807 181.829 C 105.503 179.729 108.992 177.285 112.228 174.529 C 121.475 167.147 125.966 160.937 124.893 148.8 C 124.233 141.452 123.01 133.807 118.634 127.878 C 113.034 120.265 103.49 116.946 94.87 113.078 C 92.329 112.112 90.015 110.633 88.07 108.734 C 86.304 106.77 85.263 104.161 83.133 102.608 C 81.147 104.748 78.913 106.645 76.479 108.257 C 73.622 109.809 70.979 110.816 67.759 110.189 C 68.768 112.714 70.616 114.779 72.169 117.009 C 74.472 120.285 76.208 123.925 77.304 127.776 C 78.18 130.831 78.593 134.414 77.123 137.37 C 76.824 138.05 76.385 138.659 75.837 139.16 C 75.288 139.66 74.64 140.04 73.936 140.276 C 73.556 140.408 69.098 141.301 69.147 140.839 C 69.146 140.793 69.157 140.747 69.18 140.707 C 69.18 140.704 69.18 140.701 69.178 140.698 C 69.177 140.696 69.174 140.693 69.172 140.692 C 69.169 140.69 69.166 140.69 69.163 140.69 C 68.701 140.312 68.371 139.797 68.221 139.22 Q 64.209 128.12 60.162 117.042 C 58.503 112.945 57.102 108.748 55.968 104.476 C 55.668 103.122 56.001 101.537 54.797 101.108 C 53.443 100.645 49.926 102.858 48.803 103.535 C 47.052 104.609 44.954 106.013 43.154 105.035 C 41.668 104.226 40.954 101.997 39.275 102.035 C 38.68 102.078 38.119 102.329 37.69 102.744 C 35.84 104.379 35.443 107.088 35.559 109.544 C 35.774 114.169 37.31 118.578 38.78 122.921 C 39.506 125.121 40.233 127.296 40.811 129.542 C 41.356 131.672 41.257 133.787 41.934 135.9 C 42.546 137.8 43.156 139.7 43.767 141.581 C 43.229 140.988 42.484 140.621 41.686 140.557 C 38.758 140.044 35.741 140.575 33.165 142.057 C 32.453 139.567 31.961 137.02 31.695 134.444 C 31.731 130.81 32.074 127.186 32.719 123.61 C 32.868 122.802 33.019 121.993 33.15 121.183 C 33.281 120.571 33.381 119.977 33.48 119.367 C 33.495 119.218 33.529 119.086 33.545 118.938 C 34.01 115.801 34.17 112.626 34.024 109.458 C 33.824 109.425 33.624 109.409 33.429 109.393 C 31.101 109.227 29.169 110.037 26.873 110.829 C 24.933 111.451 23.054 112.247 21.258 113.207 C 20.287 113.743 19.379 114.385 18.55 115.122 C 17.294 116.268 16.248 117.627 15.462 119.135 C 13.448 122.85 12.655 127.341 11.713 131.552 C 11.235 133.683 10.689 135.813 10.079 137.927 C 8.427 143.79 6.364 149.537 4.379 155.316 C 3.204 158.777 -0.726 165.432 0.117 169.048 Z"
        fill="#ffdf77"/>
    <path
        id="path_2"
        d="M 46.271 128.346 C 46.271 128.97 46.519 129.569 46.96 130.01 C 47.401 130.451 48 130.699 48.624 130.699 C 49.248 130.699 49.847 130.451 50.288 130.01 C 50.729 129.569 50.977 128.97 50.977 128.346 C 50.977 127.722 50.729 127.123 50.288 126.682 C 49.847 126.241 49.248 125.993 48.624 125.993 C 48 125.993 47.401 126.241 46.96 126.682 C 46.519 127.123 46.271 127.722 46.271 128.346 Z"
        fill="#ffffff"/>
    <path
        id="path_3"
        d="M 119.773 130.965 C 116.673 146.18 102.723 158.473 87.24 159.634 C 86.584 159.534 85.913 159.621 85.304 159.885 C 84.695 160.149 84.173 160.58 83.798 161.128 C 83.423 161.675 83.21 162.318 83.184 162.981 C 82.513 165.348 81.594 167.637 80.442 169.81 C 80.109 170.437 79.45 171.156 78.825 170.819 C 78.666 170.698 78.536 170.544 78.442 170.368 C 78.347 170.191 78.292 169.997 78.279 169.798 L 77.357 165.316 C 75.457 165.701 74.074 167.26 72.583 168.494 C 71.092 169.728 68.971 170.712 67.283 169.77 C 65.768 167.295 66.683 164.133 66.74 161.232 C 66.668 158.612 66.225 156.015 65.424 153.519 L 62.416 142.375 C 59.116 130.148 55.801 117.875 50.816 106.232 C 50.723 105.929 50.532 105.664 50.273 105.48 C 49.794 105.215 49.216 105.553 48.773 105.88 C 44.805 108.818 41.408 108.891 37.212 106.08 C 35.825 107.358 36.112 109.58 36.503 111.428 L 39.972 127.646 C 40.489 130.062 41.191 138.934 43.632 140.392 C 39.646 138.014 34.887 140.792 31.126 142.216 C 30.008 133.46 30.552 124.57 32.731 116.016 C 32.62 116.453 27.669 118.274 26.976 118.692 C 25.166 119.792 22.731 121.237 21.476 122.982 C 19.013 126.398 18.027 132.195 16.976 136.27 C 14.316 146.544 13.244 157.164 13.798 167.762 C 13.856 171.308 14.49 174.82 15.677 178.162 C 17.163 181.894 22.867 182.682 26.31 183.855 C 31.497 185.668 36.811 187.091 42.21 188.112 C 55.522 190.512 71.469 190.458 83.91 184.654 C 95.028 179.466 104.21 170.597 111.244 160.668 C 115.627 154.467 125.285 138.517 119.773 130.965 Z"
        fill="#ffda60"/>
    <path
        id="path_4"
        d="M 77.541 135.868 C 77.901 138.28 77.975 140.725 77.762 143.154 C 77.538 145.603 76.457 147.896 74.71 149.626 C 74.415 149.944 74.017 150.149 73.586 150.204 C 73.274 150.166 72.976 150.056 72.715 149.882 C 72.453 149.709 72.236 149.476 72.08 149.204 C 70.05 146.534 68.748 143.381 68.304 140.056 C 69.499 140.42 70.75 140.562 71.996 140.473 C 72.619 140.419 73.215 140.197 73.721 139.831 C 74.228 139.465 74.626 138.969 74.873 138.395"
        fill="#f9c929"/>
    <path
        id="path_5"
        d="M 42.877 140.292 C 43.044 140.062 43.408 140.458 43.248 140.692 C 43.088 140.926 42.754 140.935 42.471 140.926 C 39.3 140.812 36.139 141.355 33.188 142.52 C 33.358 140.004 32 137.658 31.53 135.181 C 30.912 131.919 31.853 128.595 32.549 125.351 C 34.795 114.908 34.549 104.113 34.302 93.434 C 36.04 94.111 37.868 94.533 39.727 94.685 C 39.268 96.826 39.497 99.058 40.38 101.061 C 38.831 101.044 37.544 102.275 36.739 103.599 C 35.243 106.286 34.65 109.384 35.046 112.434 C 35.449 115.461 36.173 118.435 37.208 121.308 Q 39.937 129.816 42.664 138.32 Z"
        fill="#ffffff"/>
    <path
        id="path_6"
        d="M 43.395 140.393 C 39.729 140.085 36.046 140.736 32.707 142.281 C 30.772 135.481 31.727 128.237 32.581 121.218 Q 34.137 108.418 35.17 95.559 C 36.567 95.713 37.893 96.253 38.999 97.12 C 39.54 97.564 39.928 98.168 40.105 98.845 C 40.282 99.523 40.24 100.239 39.985 100.891 C 39.438 100.805 38.877 100.892 38.382 101.14 C 37.887 101.389 37.482 101.787 37.224 102.277 C 36.728 103.271 36.469 104.366 36.468 105.477 C 35.872 114.155 37.045 122.865 39.914 131.077 Z"
        fill="#f9c929"/>
    <path
        id="path_7"
        d="M 52.255 103.374 C 54.927 98.428 55.962 92.758 55.209 87.187 C 54.813 84.419 53.858 81.76 52.404 79.372 C 50.949 76.984 49.025 74.916 46.747 73.294 C 45.23 72.263 43.021 71.523 41.702 72.794 C 40.616 73.842 40.832 75.605 41.127 77.086 C 39.784 76.432 38.165 77.43 37.359 78.686 C 36.553 79.942 36.209 81.464 35.366 82.699 C 34.61 83.807 33.492 84.625 32.72 85.722 C 32.008 86.735 31.623 87.941 31.618 89.179 C 31.612 90.417 31.986 91.627 32.689 92.646 C 33.392 93.665 34.39 94.445 35.549 94.879 C 36.708 95.314 37.973 95.383 39.172 95.078 Q 40.496 99.078 41.816 103.068 C 42.466 105.032 43.646 107.39 45.716 107.308 Z"
        fill="#e69d7f"/>
    <path
        id="path_8"
        d="M 50.151 104.311 C 49.522 104.384 48.885 104.26 48.33 103.956 C 47.774 103.651 47.327 103.181 47.051 102.611 C 46.522 101.456 46.262 100.196 46.292 98.926 C 46.31 96.325 46.044 93.729 45.499 91.185 C 45.219 89.912 44.681 88.71 43.917 87.655 C 43.153 86.599 42.18 85.712 41.058 85.048 C 39.961 84.484 38.732 84.225 37.501 84.298 C 36.583 84.353 35.686 84.6 34.869 85.024 C 34.053 85.448 33.335 86.04 32.762 86.76 C 32.2 87.488 31.816 88.338 31.641 89.24 C 31.466 90.143 31.504 91.075 31.753 91.96 C 32.14 93.147 32.907 94.175 33.935 94.883 C 34.963 95.592 36.196 95.943 37.443 95.882 C 37.882 95.777 38.345 95.844 38.736 96.068 C 38.957 96.303 39.1 96.601 39.145 96.921 C 40.008 100.435 41.471 104.093 44.515 106.052 C 44.981 106.352 45.895 106.333 45.784 105.79 Z"
        fill="#e69d7f"/>
    <path
        id="path_9"
        d="M 67.414 140.924 C 70.534 141.483 73.754 140.941 76.519 139.392 C 77.678 138.853 78.583 137.884 79.044 136.692 C 79.177 136.119 79.225 135.529 79.185 134.942 C 79.106 130.481 78.023 125.456 75.248 121.893 C 71.683 117.317 67.707 112.658 66.722 106.94 C 66.249 104.192 66.57 101.452 66.075 98.728 C 65.602 96.128 65.442 93.463 65.152 90.84 C 64.568 85.585 63.793 80.194 61.145 75.526 C 59.537 72.69 57.145 70.136 54.033 69.153 C 52.133 68.553 46.212 68.653 45.696 71.519 C 45.475 72.739 50.736 77.699 51.645 79.345 C 53.345 82.383 54.404 85.737 54.757 89.2 C 55.11 92.663 54.749 96.162 53.696 99.48 C 53.536 99.795 53.442 100.139 53.421 100.491 C 53.399 100.843 53.45 101.196 53.571 101.528 C 53.844 101.894 54.186 102.202 54.578 102.436 C 57.578 104.764 56.113 110.055 58.769 112.771 Z"
        fill="#ffffff"/>
    <path
        id="path_10"
        d="M 72.785 139.49 C 74.098 138.04 73.967 135.699 73.821 133.904 C 73.302 129.717 72.021 125.661 70.042 121.935 C 67.27 116.318 63.742 110.986 62.163 104.925 C 60.744 99.489 60.972 93.755 59.946 88.231 C 58.92 82.707 56.188 76.963 51.036 74.714 Q 52.622 82.688 53.895 90.714 C 54.432 94.096 54.917 97.621 53.912 100.893 C 54.596 101.775 55.089 102.789 55.36 103.872 C 59.424 116.41 63.075 129.188 67.608 141.559 C 69.035 140.267 71.265 141.162 72.785 139.49 Z"
        fill="#e1e1ff"/>
    <path
        id="path_11"
        d="M 83.511 51.916 L 81.927 52.579 C 83.62 50.496 86.976 50.291 89.233 51.744 C 90.325 52.53 91.219 53.561 91.843 54.753 C 92.466 55.946 92.803 57.267 92.826 58.613 C 92.907 59.649 92.763 60.691 92.403 61.666 C 91.093 64.917 86.969 65.966 83.47 65.775 Q 81.822 84.084 81.67 102.487 C 81.572 103.55 81.243 104.58 80.704 105.502 C 80.166 106.424 79.431 107.217 78.553 107.824 C 75.768 110.165 72.277 111.506 68.641 111.63 C 63.397 102.29 67.2 89.909 63.4 79.894 C 62.472 77.452 61.106 75.2 59.368 73.249 C 55.68 69.109 50.657 67.037 46.096 71.037 C 45.351 71.622 44.705 72.325 44.185 73.117 C 43.656 72.737 43.306 72.069 42.654 72.117 C 42.269 72.19 41.908 72.359 41.606 72.609 C 41.303 72.858 41.068 73.18 40.923 73.544 C 40.237 74.903 40.109 76.477 40.567 77.929 C 39.775 77.859 38.978 77.96 38.229 78.226 C 37.48 78.493 36.797 78.917 36.228 79.472 C 35.89 80.007 35.403 80.432 34.828 80.695 C 35.004 75.335 33.652 69.622 33.196 64.258 C 32.721 58.681 32.422 53.084 32.484 47.483 C 32.537 42.665 33.065 37.863 32.946 33.1 C 32.881 30.5 32.969 25.134 34.589 22.983 C 36.483 20.468 44.718 19.933 47.735 19.534 C 57.21 18.272 66.848 19.104 75.967 21.971 C 79.003 22.817 81.861 24.207 84.403 26.071 C 85.668 27.01 86.736 28.189 87.545 29.541 C 88.354 30.892 88.889 32.39 89.119 33.949 C 89.454 37.117 88.139 40.249 86.347 42.889 Z"
        fill="#e69d7f"/>
    <path
        id="path_12"
        d="M 65.031 88.454 C 67.716 89.618 70.631 87.479 73.548 87.203 C 73.659 87.18 73.774 87.179 73.886 87.201 C 73.998 87.222 74.104 87.266 74.199 87.329 C 74.284 87.429 74.344 87.548 74.375 87.676 C 74.405 87.803 74.405 87.936 74.374 88.064 C 74.033 90.991 71.029 92.739 69.331 95.149 C 67.61 97.588 67.26 100.699 66.806 103.649 C 66.794 103.843 66.728 104.03 66.616 104.188 C 66.52 104.271 66.403 104.328 66.278 104.351 C 66.153 104.375 66.024 104.365 65.904 104.322 C 65.784 104.28 65.677 104.206 65.595 104.109 C 65.359 103.803 65.216 103.434 65.183 103.049 C 64.614 99.766 64.485 96.422 64.801 93.105"
        fill="#e69d7f"/>
    <path
        id="path_13"
        d="M 68.328 27.354 C 65.04 30.438 61.148 32.807 56.899 34.312 C 52.65 35.817 48.134 36.425 43.638 36.097 L 42.652 47.122 C 42.664 48.027 42.383 48.912 41.852 49.644 C 40.795 50.8 38.642 50.59 37.858 51.944 C 36.471 54.354 41.423 57.144 39.913 59.476 C 39.603 59.955 39.07 60.255 38.758 60.734 C 37.918 62.034 39.17 63.755 40.599 64.343 C 42.028 64.931 43.68 64.943 44.999 65.756 C 45.363 65.945 45.64 66.268 45.772 66.656 C 46.155 68.232 43.205 68.107 42.217 69.391 C 41.551 70.255 41.993 71.48 42.161 72.557 C 42.269 73.733 42.025 74.916 41.461 75.953 C 40.896 76.991 40.036 77.838 38.99 78.386 C 37.943 78.934 36.757 79.159 35.583 79.033 C 33.14 72.792 32.91 65.94 32.711 59.242 L 31.667 24.147 Z"
        fill="#e69d7f"/>
    <path
        id="path_14"
        d="M 66.707 28.331 L 66.333 28.521 C 66.771 28.398 67.205 28.27 67.638 28.13 C 67.329 28.204 67.021 28.276 66.707 28.331 Z"
        fill="#372b7b"/>
    <path
        id="path_15"
        d="M 74.117 8.514 C 74.538 8.846 74.942 9.192 75.334 9.552 L 75.421 9.508 C 74.998 9.165 74.563 8.832 74.117 8.514 Z"
        fill="#372b7b"/>
    <path
        id="path_16"
        d="M 49.861 67.369 C 49.401 67.236 48.974 67.01 48.605 66.704 C 48.237 66.398 47.937 66.019 47.722 65.591 C 47.49 65.135 47.347 64.639 47.301 64.13 C 47.282 63.922 47.286 63.713 47.312 63.506 C 47.351 63.186 47.471 62.882 47.66 62.621 C 47.751 62.468 47.894 62.353 48.062 62.297 C 48.231 62.241 48.414 62.247 48.578 62.315 C 48.743 62.382 48.877 62.507 48.957 62.666 C 49.037 62.824 49.057 63.007 49.014 63.179 L 49.014 63.179 L 49.014 63.191 L 49.014 63.214 L 49.006 63.314 L 48.956 63.725 L 48.929 63.856 L 48.917 64.08 L 48.928 64.371 L 48.928 64.409 L 48.937 64.45 C 48.974 64.636 49.045 64.804 49.091 64.986 L 49.146 65.099 L 49.278 65.332 L 49.406 65.516 L 49.439 65.557 L 49.52 65.647 L 49.712 65.831 L 49.724 65.846 L 49.824 65.914 L 50.051 66.052 L 50.18 66.116 L 50.206 66.125 C 50.342 66.157 50.463 66.232 50.552 66.339 C 50.642 66.446 50.694 66.579 50.701 66.719 C 50.708 66.858 50.671 66.995 50.593 67.111 C 50.516 67.227 50.403 67.315 50.271 67.361 C 50.14 67.407 49.997 67.41 49.864 67.368 Z"
        fill="#372b7b"/>
    <path
        id="path_17"
        d="M 28.049 71.165 C 26.154 70.457 24.21 69.89 22.231 69.47 C 22.436 70.343 22.459 71.249 22.301 72.131 C 21.969 73.579 20.766 73.831 19.47 73.538 C 16.138 72.787 12.816 71.988 9.488 71.213 C 8.355 70.951 8.835 69.223 9.969 69.472 L 17.349 71.091 L 19.106 71.474 C 19.4 71.539 19.692 71.608 19.985 71.667 L 20.385 71.732 C 20.458 71.227 20.438 70.713 20.326 70.215 C 20.241 69.606 20.11 69.004 19.935 68.415 C 19.88 68.192 19.904 67.956 20.003 67.748 C 20.102 67.54 20.269 67.373 20.477 67.274 C 20.685 67.175 20.921 67.151 21.144 67.206 C 23.665 67.731 26.131 68.493 28.509 69.482 C 29.524 69.905 29.11 71.569 28.049 71.165 Z"
        fill="#372b7b"/>
    <path
        id="path_18"
        d="M 22.433 86.078 C 22.43 86.574 22.253 87.054 21.932 87.433 C 21.612 87.812 21.169 88.066 20.68 88.152 C 20.105 88.209 19.524 88.177 18.958 88.058 Q 17.917 87.923 16.875 87.79 L 12.97 87.29 C 12.719 87.28 12.478 87.185 12.286 87.022 C 12.095 86.858 11.964 86.635 11.914 86.388 C 11.865 86.142 11.899 85.885 12.013 85.661 C 12.126 85.436 12.312 85.256 12.54 85.149 C 12.767 85.042 13.025 85.015 13.27 85.072 C 15.464 85.372 17.661 85.72 19.862 85.959 C 20.069 85.982 20.324 85.897 20.236 86.076 C 20.287 85.756 20.274 85.429 20.198 85.114 C 20.08 84.327 20.182 83.522 20.492 82.789 C 20.613 82.589 20.795 82.434 21.011 82.346 C 21.227 82.258 21.466 82.242 21.692 82.301 C 23.55 82.77 25.375 83.361 27.155 84.072 C 27.52 84.196 27.852 84.403 28.123 84.677 C 28.255 84.817 28.335 84.998 28.351 85.19 C 28.367 85.382 28.318 85.574 28.211 85.734 C 28.083 85.85 27.931 85.936 27.765 85.983 C 27.599 86.031 27.424 86.04 27.254 86.009 C 26.942 85.988 22.293 84.492 22.303 84.574 L 22.352 84.941 C 22.412 85.317 22.439 85.697 22.433 86.078 Z"
        fill="#372b7b"/>
    <path
        id="path_19"
        d="M 84.394 57.695 C 84.537 56.897 84.98 56.183 85.632 55.7 C 85.921 55.478 86.257 55.324 86.615 55.252 C 86.973 55.179 87.342 55.19 87.695 55.282 C 87.991 55.379 88.259 55.545 88.478 55.766 C 88.697 55.987 88.861 56.257 88.955 56.554 C 89.071 56.854 89.095 57.182 89.023 57.495 C 88.952 57.808 88.789 58.094 88.555 58.314 C 88.494 58.368 88.414 58.397 88.332 58.395 C 88.25 58.393 88.172 58.36 88.114 58.302 C 88.056 58.244 88.022 58.166 88.019 58.084 C 88.016 58.003 88.045 57.923 88.099 57.861 C 88.208 57.731 88.278 57.573 88.299 57.405 C 88.32 57.236 88.292 57.066 88.218 56.913 C 88.151 56.748 88.048 56.599 87.918 56.478 C 87.806 56.364 87.662 56.285 87.506 56.251 C 87.302 56.219 87.094 56.235 86.898 56.298 C 86.702 56.362 86.523 56.47 86.377 56.616 L 86.243 56.75 L 86.178 56.82 L 85.962 57.17 L 85.921 57.255 L 85.927 57.244 L 85.866 57.43 L 85.813 57.654 L 85.793 57.767 L 85.793 57.81 L 85.793 58.073 L 85.801 58.189 L 85.81 58.265 L 85.81 58.251 C 85.848 58.426 85.88 58.599 85.933 58.771 L 85.968 58.884 L 85.968 58.89 L 86.035 58.981 L 86.017 58.958 C 86.17 59.158 86.298 59.377 86.397 59.608 C 86.518 59.818 86.563 60.064 86.526 60.303 C 86.488 60.543 86.37 60.762 86.19 60.925 C 86.011 61.088 85.781 61.185 85.539 61.2 C 85.297 61.215 85.057 61.146 84.859 61.006 C 84.661 60.866 84.517 60.662 84.451 60.429 C 84.353 60.176 84.299 59.907 84.293 59.635 C 84.304 59.435 84.304 59.235 84.293 59.035 C 84.264 58.586 84.298 58.135 84.394 57.695 Z"
        fill="#372b7b"/>
    <path
        id="path_20"
        d="M 65.657 56.175 C 64.329 56.947 63.145 57.943 62.157 59.12 C 62.985 59.494 63.814 59.866 64.643 60.24 C 64.834 60.353 64.974 60.537 65.03 60.752 C 65.086 60.966 65.055 61.195 64.943 61.387 C 64.828 61.575 64.644 61.712 64.43 61.768 C 64.217 61.824 63.99 61.795 63.797 61.687 L 60.611 60.038 C 60.483 59.96 60.381 59.844 60.319 59.707 C 60.257 59.57 60.237 59.418 60.263 59.27 C 60.288 59.121 60.358 58.984 60.462 58.876 C 61.723 57.336 63.292 56.076 65.067 55.176 C 65.735 54.836 66.31 55.797 65.657 56.175 Z"
        fill="#372b7b"/>
    <path
        id="path_21"
        d="M 38.253 56.318 Q 40.708 57.226 43.167 58.135 C 43.347 58.191 43.5 58.314 43.592 58.479 C 43.684 58.644 43.709 58.838 43.662 59.021 C 43.616 59.204 43.5 59.362 43.34 59.462 L 41.825 60.423 L 41.089 60.889 C 40.795 61.056 40.486 61.195 40.166 61.304 C 39.515 61.564 38.946 60.56 39.475 60.119 C 39.712 59.902 39.968 59.705 40.239 59.532 C 40.505 59.378 40.775 59.232 41.039 59.082 C 41.139 59.026 41.239 58.969 41.339 58.915 L 37.802 57.381 C 37.682 57.309 37.592 57.196 37.548 57.063 C 37.505 56.93 37.511 56.785 37.565 56.656 C 37.619 56.527 37.719 56.422 37.844 56.36 C 37.97 56.298 38.114 56.284 38.249 56.319 Z"
        fill="#372b7b"/>
    <path
        id="path_22"
        d="M 68.487 49.657 C 68.469 49.649 68.347 49.596 68.303 49.575 C 68.025 49.458 67.74 49.357 67.454 49.266 C 66.897 49.093 66.329 48.96 65.754 48.866 L 65.724 48.86 L 65.494 48.834 C 65.34 48.817 65.187 48.805 65.033 48.794 C 64.658 48.767 64.285 48.713 63.918 48.631 C 63.678 48.565 63.466 48.422 63.315 48.224 C 63.164 48.026 63.083 47.784 63.083 47.535 C 63.083 47.287 63.164 47.045 63.315 46.847 C 63.466 46.649 63.678 46.506 63.918 46.44 C 64.302 46.357 64.697 46.333 65.089 46.368 C 65.466 46.415 65.842 46.468 66.213 46.54 C 66.861 46.669 67.497 46.855 68.113 47.094 C 69.427 47.601 70.65 48.32 71.732 49.222 C 71.908 49.4 72.013 49.636 72.028 49.885 C 72.044 50.135 71.968 50.382 71.815 50.58 C 71.663 50.778 71.443 50.914 71.198 50.963 C 70.953 51.011 70.698 50.97 70.481 50.845 C 69.984 50.474 69.457 50.145 68.906 49.862 Z"
        fill="#372b7b"/>
    <path
        id="path_23"
        d="M 45.13 49.617 L 38.941 51.49 C 38.744 51.545 38.534 51.536 38.342 51.464 C 38.15 51.393 37.986 51.262 37.873 51.091 C 37.76 50.92 37.704 50.717 37.714 50.513 C 37.723 50.308 37.797 50.112 37.926 49.952 C 38.054 49.792 38.229 49.677 38.427 49.623 Q 41.563 48.845 44.701 48.062 C 44.904 48.013 45.119 48.045 45.299 48.152 C 45.48 48.258 45.612 48.43 45.667 48.632 C 45.723 48.834 45.698 49.049 45.598 49.233 C 45.498 49.417 45.33 49.555 45.13 49.617 Z"
        fill="#372b7b"/>
    <path
        id="path_24"
        d="M 2.139 160.808 C 6.651 149.486 10.23 137.814 12.839 125.908 C 13.921 120.976 15.898 116.93 19.894 113.701 C 23.568 110.666 28.163 108.962 32.928 108.868 C 33.247 104.466 33.859 100.089 34.76 95.768 C 33.36 95.031 32.2 93.906 31.421 92.528 C 30.641 91.151 30.274 89.578 30.363 87.997 C 30.452 86.417 30.994 84.895 31.923 83.614 C 32.823 82.385 34.149 81.614 34.937 80.302 L 35.06 80.095 L 35.022 80.034 C 32.131 72.412 32.682 63.734 32.279 55.716 C 32.092 51.999 31.935 48.301 31.909 44.605 C 31.752 44.642 31.587 44.626 31.44 44.56 C 31.293 44.494 31.173 44.38 31.097 44.238 C 30.487 43.041 30.073 41.755 29.871 40.427 C 29.6 39.152 29.396 37.864 29.235 36.569 C 29.064 35.31 28.979 34.04 28.979 32.769 C 28.994 31.469 28.853 29.88 29.715 28.869 C 28.732 28.262 27.948 27.38 27.46 26.333 C 26.482 24.17 26.479 21.509 26.549 19.17 C 26.592 18.077 26.786 16.996 27.126 15.957 C 28.436 10.94 31.628 6.615 36.035 3.883 C 36.257 3.742 36.487 3.621 36.712 3.489 L 36.873 3.396 C 37.328 3.133 37.786 2.888 38.253 2.66 L 38.372 2.596 L 38.436 2.572 C 46.391 -1.234 56.069 -0.294 64.33 2.055 C 71.859 4.199 79.504 8.801 82.215 16.12 C 82.315 16.29 82.415 16.458 82.5 16.631 C 82.841 16.64 83.179 16.666 83.518 16.709 C 85.967 16.917 88.307 17.815 90.266 19.299 C 92.224 20.783 93.722 22.794 94.584 25.095 C 95.794 28.483 94.984 32.182 93.799 35.451 C 93.641 35.888 93.47 36.326 93.308 36.764 C 92.555 41.432 90.352 45.522 89.237 50.056 C 89.194 50.137 89.176 50.228 89.184 50.319 C 89.191 50.41 89.225 50.496 89.281 50.569 C 89.336 50.641 89.411 50.696 89.497 50.727 C 90.636 51.313 91.614 52.169 92.345 53.222 C 93.075 54.274 93.537 55.489 93.688 56.761 C 93.95 58.464 93.757 60.207 93.13 61.812 C 92.502 63.417 91.462 64.829 90.114 65.903 C 89.092 66.651 87.878 67.095 86.614 67.181 C 84.455 71.746 83.35 76.738 83.38 81.788 C 83.441 83.982 83.473 86.18 83.462 88.388 Q 83.441 92.288 83.246 96.188 Q 83.146 98.288 83.013 100.388 C 83.01 100.985 82.95 101.58 82.833 102.165 L 83.016 102.238 L 83.216 102.271 Q 84.129 102.94 85.04 103.613 Q 85.487 103.944 85.932 104.284 C 86.111 104.402 86.278 104.536 86.432 104.684 C 86.57 104.833 86.691 105.007 86.817 105.166 C 86.909 105.261 86.964 105.385 86.971 105.517 C 86.979 105.649 86.939 105.779 86.858 105.883 C 86.778 105.988 86.662 106.06 86.533 106.086 C 86.404 106.113 86.269 106.092 86.154 106.027 C 85.988 105.933 85.821 105.84 85.654 105.744 C 85.473 105.627 85.307 105.488 85.16 105.33 C 84.882 105.062 84.602 104.796 84.328 104.53 L 83.166 103.384 C 81.921 105.819 80.087 107.905 77.831 109.451 C 75.575 110.997 72.968 111.955 70.248 112.238 L 70.47 112.661 C 71.343 114.204 72.236 115.612 73.11 116.95 C 75.972 116.265 78.659 114.988 80.998 113.201 C 83.336 111.415 85.274 109.158 86.687 106.576 C 86.662 106.529 86.654 106.475 86.663 106.422 C 86.672 106.37 86.699 106.322 86.738 106.286 C 86.777 106.25 86.827 106.228 86.88 106.223 C 86.961 106.071 87.049 105.923 87.126 105.768 C 87.163 105.709 87.219 105.666 87.285 105.645 C 87.352 105.624 87.423 105.628 87.487 105.654 C 87.55 105.681 87.603 105.73 87.634 105.792 C 87.665 105.854 87.673 105.925 87.657 105.992 C 87.596 106.173 87.517 106.343 87.45 106.521 C 92.353 109.776 97.454 112.723 102.723 115.343 C 107.73 117.7 112.623 119.343 116.223 123.79 C 116.486 124.117 116.73 124.456 116.976 124.796 L 117.181 124.959 C 120 127.598 121.825 131.13 122.346 134.957 C 122.646 135.814 122.918 136.933 123.179 137.793 C 124.871 143.367 126.846 154.201 123.179 162.882 C 123.1 164.114 122.499 163.498 122.346 162.325 C 123.846 147.618 122.768 146.609 121.925 142.39 C 121.543 145.191 120.794 147.929 119.699 150.535 C 115.533 160.279 106.13 166.503 97.507 171.989 C 92.334 175.465 86.672 178.15 80.707 179.955 C 75.3 181.438 67.87 182.575 62.756 179.655 C 62.661 179.596 62.588 179.508 62.547 179.404 C 62.506 179.3 62.5 179.186 62.529 179.078 C 62.558 178.97 62.621 178.875 62.709 178.806 C 62.797 178.736 62.904 178.697 63.016 178.694 C 65.433 178.775 67.81 179.263 70.236 179.312 C 72.973 179.355 75.706 179.062 78.372 178.44 C 83.295 177.222 88.011 175.279 92.364 172.677 C 96.685 170.168 100.859 167.414 104.864 164.427 C 108.836 161.492 112.83 158.192 115.684 154.117 C 117.926 150.898 119.45 147.235 120.154 143.376 C 120.877 139.411 120.072 136.108 118.871 132.311 C 118.458 130.631 117.719 129.048 116.694 127.654 C 111.756 121.797 102.894 123.387 97.887 128.348 C 96.256 129.964 94.896 131.814 93.431 133.574 C 91.586 135.717 89.625 137.759 87.557 139.688 C 83.635 143.463 79.731 147.582 75.366 150.888 C 75.566 151.133 75.772 151.373 75.966 151.624 C 77.565 153.655 78.852 155.914 79.786 158.324 C 80.414 159.944 81.963 163.163 80.655 164.677 L 80.224 164.732 C 79.313 164.105 79.412 163.408 79.174 162.325 C 78.834 160.754 78.331 159.223 77.674 157.756 C 76.82 155.915 75.741 154.186 74.464 152.608 C 74.782 153.685 75.033 154.781 75.216 155.889 C 75.526 157.839 76.362 161.956 73.838 162.881 C 73.646 162.935 73.44 162.921 73.257 162.842 C 73.073 162.763 72.922 162.623 72.829 162.446 C 72.737 162.269 72.708 162.065 72.747 161.869 C 72.787 161.673 72.893 161.496 73.047 161.369 C 73.401 161.099 73.653 160.717 73.761 160.286 C 73.977 158.939 73.963 157.566 73.72 156.224 C 73.432 154.037 72.908 151.887 72.155 149.813 C 69.636 146.489 67.729 142.743 66.524 138.751 Q 62.384 126.421 58.301 114.07 Q 57.212 110.798 56.122 107.527 C 55.522 105.727 54.448 104.206 54.292 102.327 C 53.644 102.958 52.942 103.531 52.192 104.037 C 49.373 105.805 46.289 107.111 43.058 107.907 C 41.035 108.407 37.008 108.52 36.086 106.116 C 35.232 112.98 38.363 119.77 40.248 126.224 Q 43.194 136.324 46.142 146.409 C 47.966 152.654 49.661 158.953 51.642 165.148 C 52.403 167.785 53.52 170.305 54.963 172.639 C 55.654 173.708 56.481 174.683 57.423 175.539 C 58.258 176.288 59.244 176.688 59.551 177.824 C 59.583 177.948 59.565 178.079 59.502 178.19 C 59.439 178.301 59.335 178.383 59.213 178.419 C 57.177 178.997 55.079 176.291 53.984 174.879 C 52.444 172.794 51.222 170.493 50.357 168.05 C 47.905 161.608 46.346 154.768 44.446 148.155 Q 43.462 144.723 42.476 141.288 C 39.622 140.893 36.719 141.545 34.308 143.123 C 34.146 143.212 33.956 143.236 33.777 143.189 C 33.598 143.142 33.444 143.029 33.346 142.872 C 29.578 137.441 31.692 129.043 32.071 122.88 C 32.337 118.565 32.526 114.202 32.855 109.853 C 27.846 110.41 23.156 112.598 19.51 116.078 C 15.548 120.031 14.827 124.934 13.572 130.141 C 11.01 140.727 7.667 151.109 3.572 161.201 C 3.218 162.072 1.785 161.695 2.139 160.808 Z M 81.697 103.116 L 81.597 103.023 C 80.964 102.054 81.268 100.901 81.316 99.781 Q 81.389 97.981 81.444 96.181 Q 81.524 93.62 81.598 91.056 C 81.523 88.077 81.536 85.092 81.536 82.147 C 81.536 79.258 81.565 76.369 81.582 73.48 C 81.019 72.353 81.611 66.535 81.628 64.918 C 81.633 64.721 81.714 64.534 81.855 64.395 C 81.995 64.257 82.184 64.179 82.381 64.177 C 82.578 64.175 82.768 64.25 82.911 64.386 C 83.655 65.119 84.634 65.567 85.675 65.649 C 85.841 65.594 86.02 65.598 86.183 65.661 C 87.594 65.613 88.932 65.022 89.918 64.012 C 90.788 63.081 91.434 61.963 91.807 60.744 C 92.18 59.526 92.269 58.238 92.069 56.979 C 91.961 55.811 91.519 54.699 90.797 53.775 C 90.075 52.852 89.102 52.155 87.995 51.768 C 86.971 51.436 85.867 51.449 84.851 51.803 C 83.835 52.158 82.962 52.835 82.367 53.732 C 82.268 53.892 82.12 54.015 81.945 54.084 C 81.77 54.153 81.578 54.163 81.397 54.114 C 81.215 54.065 81.054 53.959 80.938 53.812 C 80.822 53.664 80.756 53.483 80.751 53.295 C 80.445 47.183 80.716 41.056 81.56 34.995 C 79.951 34.805 78.406 34.253 77.042 33.38 C 75.678 32.507 74.529 31.336 73.682 29.955 C 73.396 29.483 73.172 28.976 73.017 28.447 C 70.352 29.633 67.562 30.517 64.7 31.082 C 59.96 32.079 55.133 32.602 50.29 32.643 C 45.559 32.757 40.199 33.279 35.607 31.943 C 34.991 31.759 34.392 31.523 33.816 31.237 C 33.362 39.259 33.424 47.302 34 55.316 C 34.406 62.827 33.994 70.943 36.381 78.184 C 36.61 77.932 36.863 77.704 37.137 77.502 C 38.073 76.862 39.1 76.366 40.184 76.031 C 39.991 75.228 40.057 74.385 40.371 73.622 C 40.686 72.859 41.234 72.214 41.936 71.781 C 42.639 71.347 43.461 71.147 44.284 71.208 C 55.157 61.008 63.447 76.015 65.159 86.77 C 65.234 87.236 65.299 87.704 65.359 88.17 C 66.106 87.99 66.859 87.816 67.598 87.63 C 67.792 87.562 68.004 87.561 68.199 87.625 C 68.395 87.69 68.564 87.817 68.679 87.987 C 68.795 88.157 68.852 88.361 68.84 88.566 C 68.829 88.772 68.75 88.968 68.616 89.124 C 68.481 89.28 68.299 89.388 68.098 89.43 C 67.266 89.637 66.431 89.83 65.598 90.03 C 66.386 96.893 66.547 103.984 69.325 110.33 C 71.814 110.203 74.236 109.482 76.388 108.227 C 78.541 106.972 80.361 105.219 81.697 103.115 Z M 71.174 145.416 C 72.164 147.021 73.299 148.532 74.565 149.93 C 78.204 145.558 82.677 141.722 86.744 137.797 C 88.804 135.858 90.745 133.798 92.557 131.626 C 93.891 129.881 95.337 128.224 96.885 126.665 C 97.798 124.838 101.615 123.42 103.404 122.824 C 106.124 121.916 108.385 122.263 111.187 122.43 C 103.224 117.775 93.405 114.918 86.743 108.313 L 86.696 108.241 C 85.403 110.715 83.598 112.885 81.401 114.607 C 79.204 116.329 76.666 117.564 73.955 118.229 C 77.421 123.491 80.32 127.929 79.855 135.702 C 79.841 135.97 79.725 136.224 79.529 136.408 L 79.378 136.734 C 78.651 137.943 77.665 138.975 76.49 139.755 C 75.341 140.565 74.05 141.153 72.684 141.489 C 72.009 141.654 71.32 141.758 70.626 141.801 C 70.241 141.83 69.855 141.83 69.47 141.801 C 69.951 143.043 70.52 144.248 71.174 145.408 Z M 54.667 99.749 C 54.665 99.772 54.659 99.795 54.65 99.817 C 54.563 100.152 54.487 100.491 54.391 100.817 L 54.653 100.811 C 54.663 100.754 54.69 100.701 54.731 100.659 C 54.772 100.617 54.824 100.589 54.881 100.577 C 54.938 100.566 54.997 100.572 55.051 100.594 C 55.105 100.617 55.15 100.655 55.182 100.704 C 55.524 101.319 55.83 101.954 56.099 102.604 C 55.938 101.6 55.907 100.579 56.005 99.567 L 56.096 96.308 C 56.157 94.122 56.272 91.969 56.487 89.792 C 56.487 89.741 56.507 89.692 56.544 89.656 C 56.58 89.619 56.629 89.599 56.68 89.599 C 56.731 89.599 56.78 89.619 56.816 89.656 C 56.853 89.692 56.873 89.741 56.873 89.792 C 57.089 91.969 57.203 94.122 57.264 96.308 L 57.355 99.567 C 57.368 103.234 57.865 106.883 58.835 110.419 C 60.184 115.036 62.024 119.519 63.525 124.072 C 65.125 128.91 66.668 133.763 68.298 138.589 C 68.447 139.032 68.598 139.47 68.757 139.911 C 69.221 139.846 69.691 139.839 70.157 139.89 C 70.666 139.908 71.175 139.887 71.681 139.828 C 74.117 139.528 77.175 137.52 77.762 134.958 C 78.136 133.324 77.481 130.858 77.085 129.264 C 76.578 127.3 75.868 125.394 74.967 123.577 C 74.717 123.058 72.639 118.514 72.23 118.577 L 72.175 118.583 C 71.716 117.576 71.167 116.613 70.533 115.706 C 70.343 115.383 70.151 115.062 69.964 114.738 C 69.57 113.971 69.264 113.172 68.84 112.407 C 68.417 111.672 67.949 110.964 67.44 110.286 C 67.489 110.286 67.54 110.303 67.586 110.307 C 66.36 107.853 65.484 105.239 64.986 102.542 C 64.221 97.952 64.081 93.342 63.486 88.752 C 63.328 87.54 63.086 86.452 62.812 85.267 C 61.788 80.802 60.442 76.006 57.457 72.413 C 56.247 70.786 54.462 69.679 52.467 69.319 C 51.402 69.202 50.325 69.332 49.318 69.698 C 48.818 69.868 46.032 71.729 45.858 71.656 C 48.946 72.969 51.446 76.108 52.913 78.975 C 56.146 85.291 56.408 92.925 54.667 99.745 Z M 44.714 105.24 C 47.888 104.269 50.788 102.563 53.179 100.261 C 54.458 94.83 54.359 89.164 52.893 83.78 C 52.158 81.038 50.814 78.498 48.962 76.347 C 47.997 75.237 46.851 74.297 45.574 73.567 C 45.139 73.321 44.666 73.15 44.174 73.062 C 44.077 73.123 43.964 73.155 43.85 73.153 C 43.735 73.151 43.624 73.116 43.529 73.051 C 43.125 73.107 42.755 73.307 42.488 73.615 C 42.181 73.955 41.991 74.385 41.948 74.841 C 41.904 75.297 42.008 75.755 42.245 76.147 C 42.339 76.314 42.381 76.505 42.364 76.696 C 42.348 76.887 42.274 77.069 42.153 77.217 C 42.031 77.365 41.868 77.473 41.684 77.527 C 40.574 77.826 39.509 78.274 38.518 78.858 C 37.683 79.491 37.019 80.321 36.584 81.274 C 35.534 83.068 33.625 84.035 32.793 85.986 C 32.267 87.226 32.145 88.602 32.446 89.915 C 32.747 91.229 33.455 92.414 34.469 93.302 C 35.483 94.189 36.751 94.734 38.093 94.859 C 38.075 94.728 38.057 94.599 38.035 94.473 C 37.805 93.137 37.606 91.156 36.18 90.568 C 34.791 90.799 33.766 88.782 35.212 88.036 C 37.442 86.887 38.486 89.242 38.959 90.998 C 39.246 92.084 39.47 93.186 39.63 94.298 C 39.712 94.861 39.922 95.453 39.978 96.022 C 40.776 99.403 41.829 103.153 44.715 105.236 Z M 38.061 105.602 C 38.566 106.241 40.077 105.964 40.781 105.914 Q 41.598 105.855 42.406 105.739 C 41.425 104.728 40.624 103.557 40.039 102.275 C 39.428 102.596 38.871 103.01 38.387 103.503 C 38.113 103.77 37.933 104.118 37.874 104.496 C 37.816 104.874 37.881 105.261 38.062 105.598 Z M 32.429 132.092 C 32.233 134.546 32.488 137.014 33.182 139.376 C 33.247 139.587 33.317 139.796 33.393 140.004 C 33.603 140.589 33.851 141.16 34.134 141.714 C 35.221 140.954 36.492 140.498 37.814 140.392 C 38.314 140.352 41.961 139.497 42.054 139.82 L 38.194 126.358 C 36.347 119.921 33.581 112.628 35.526 105.931 C 35.548 105.872 35.588 105.822 35.64 105.787 C 35.692 105.752 35.753 105.733 35.816 105.734 C 35.878 105.735 35.939 105.755 35.99 105.791 L 35.876 105.414 C 35.543 103.085 37.338 101.385 39.328 100.558 C 38.888 99.315 38.516 98.049 38.214 96.765 C 37.139 96.692 36.087 96.417 35.114 95.954 C 35.496 105.93 34.148 116.033 33.577 125.987 C 33.455 128.134 32.565 130.008 32.43 132.088 Z"
        fill="#372b7b"/>
    <path
        id="path_25"
        d="M 71.19 12.975 C 68.346 10.906 65.104 9.449 61.669 8.696 C 58.234 7.943 54.679 7.91 51.231 8.6 C 49.095 9.076 48.184 5.793 50.324 5.315 C 58.524 3.485 66.475 5.359 72.41 11.394 C 73.184 12.182 72.156 13.652 71.19 12.975 Z"
        fill="#ffffff"/>
    <path
        id="path_26"
        d="M 43.981 10.736 C 43.501 10.717 43.048 10.512 42.715 10.166 C 42.383 9.82 42.197 9.358 42.197 8.879 C 42.197 8.399 42.383 7.937 42.715 7.591 C 43.048 7.245 43.501 7.04 43.981 7.021 C 44.461 7.04 44.914 7.245 45.247 7.591 C 45.579 7.937 45.765 8.399 45.765 8.879 C 45.765 9.358 45.579 9.82 45.247 10.166 C 44.914 10.512 44.461 10.717 43.981 10.736 Z"
        fill="#ffffff"/>
</svg>
